<svg width="32" height="32" viewBox="0 0 32 32" fill="none" xmlns="http://www.w3.org/2000/svg">
<g clip-path="url(#clip0_268_422)">
<path fill-rule="evenodd" clip-rule="evenodd" d="M7.62939e-06 16C7.62939e-06 24.8202 7.17649 32 16 32C24.8202 32 32 24.8202 32 16C32 7.17982 24.8202 0 16 0C7.17985 0 7.62939e-06 7.17982 7.62939e-06 16ZM5.94192 4.96936C8.59785 2.54552 12.1293 1.06554 16 1.06554C19.8696 1.06554 23.4 2.54462 26.0557 4.96715L24.8681 6.1547C22.5199 4.03823 19.4105 2.75 16 2.75C12.5883 2.75 9.47795 4.03912 7.12945 6.15689L5.94192 4.96936ZM4.96751 5.94395C2.54477 8.59964 1.06555 12.1302 1.06555 16C1.06555 19.8694 2.54451 23.3997 4.96688 26.0553L6.15442 24.8678C4.03812 22.5196 2.75001 19.4104 2.75001 16C2.75001 12.5893 4.03838 9.47974 6.15506 7.13149L4.96751 5.94395ZM5.94123 27.03C8.59724 29.4542 12.1289 30.9344 16 30.9344C19.8692 30.9344 23.3992 29.4557 26.0548 27.0337L24.8672 25.8461C22.5191 27.9621 19.4101 29.25 16 29.25C12.5879 29.25 9.47732 27.9606 7.12874 25.8425L5.94123 27.03ZM30.9345 16C30.9345 19.8714 29.454 23.4033 27.0295 26.0593L25.842 24.8718C27.9604 22.5232 29.25 19.4123 29.25 16C29.25 12.5881 27.9608 9.47761 25.8428 7.12907L27.0303 5.94154C29.4544 8.5975 30.9345 12.129 30.9345 16Z" fill="#478BF9"/>
<path d="M18.0733 11.5468H19.3267V9.42685C18.7198 9.36375 18.1101 9.33259 17.5 9.33352C15.6867 9.33352 14.4467 10.4402 14.4467 12.4668V14.2135H12.4V16.5868H14.4467V22.6668H16.9V16.5868H18.94L19.2467 14.2135H16.9V12.7002C16.9 12.0002 17.0867 11.5468 18.0733 11.5468Z" fill="#110A1D"/>
</g>
<defs>
<clipPath id="clip0_268_422">
<rect width="32" height="32" fill="white"/>
</clipPath>
</defs>
</svg>
