<svg width="32" height="32" viewBox="0 0 32 32" fill="none" xmlns="http://www.w3.org/2000/svg">
<g clip-path="url(#clip0_268_409)">
<path fill-rule="evenodd" clip-rule="evenodd" d="M7.62939e-06 16C7.62939e-06 24.8202 7.17649 32 16 32C24.8202 32 32 24.8202 32 16C32 7.17982 24.8202 0 16 0C7.17985 0 7.62939e-06 7.17982 7.62939e-06 16ZM5.94192 4.96936C8.59785 2.54552 12.1293 1.06554 16 1.06554C19.8696 1.06554 23.4 2.54462 26.0557 4.96715L24.8681 6.1547C22.5199 4.03823 19.4105 2.75 16 2.75C12.5883 2.75 9.47795 4.03912 7.12945 6.15689L5.94192 4.96936ZM4.96751 5.94395C2.54477 8.59964 1.06555 12.1302 1.06555 16C1.06555 19.8694 2.54451 23.3997 4.96688 26.0553L6.15442 24.8678C4.03812 22.5196 2.75001 19.4104 2.75001 16C2.75001 12.5893 4.03838 9.47974 6.15506 7.13149L4.96751 5.94395ZM5.94123 27.03C8.59724 29.4542 12.1289 30.9344 16 30.9344C19.8692 30.9344 23.3992 29.4557 26.0548 27.0337L24.8672 25.8461C22.5191 27.9621 19.4101 29.25 16 29.25C12.5879 29.25 9.47732 27.9606 7.12874 25.8425L5.94123 27.03ZM30.9345 16C30.9345 19.8714 29.454 23.4033 27.0295 26.0593L25.842 24.8718C27.9604 22.5232 29.25 19.4123 29.25 16C29.25 12.5881 27.9608 9.47761 25.8428 7.12907L27.0303 5.94154C29.4544 8.5975 30.9345 12.129 30.9345 16Z" fill="#478BF9"/>
<path d="M21.3117 13.5386V13.9128C21.3117 17.6814 18.5586 22.0001 13.5207 22.0001C12.0335 22.0034 10.5778 21.5546 9.33333 20.709C9.54947 20.7394 9.76749 20.7532 9.98558 20.7501C11.2184 20.7536 12.4165 20.3266 13.3874 19.5376C12.8147 19.5288 12.2592 19.3328 11.7998 18.9774C11.3405 18.622 11.0008 18.1253 10.8288 17.5579C10.9994 17.5954 11.1734 17.6143 11.3477 17.614C11.5913 17.6141 11.8337 17.5801 12.0685 17.513C11.4481 17.3846 10.8901 17.0363 10.4897 16.5277C10.0894 16.0191 9.87169 15.3818 9.87387 14.7249V14.6875C10.2534 14.9077 10.6789 15.0284 11.1135 15.0393C10.535 14.6439 10.1237 14.0341 9.96359 13.3343C9.80352 12.6346 9.90677 11.8978 10.2523 11.2745C10.9406 12.1537 11.7995 12.8727 12.773 13.3846C13.7465 13.8966 14.8128 14.19 15.9027 14.2459C15.8488 14.0335 15.8233 13.8144 15.827 13.5947C15.8067 13.0143 15.9592 12.4414 16.2637 11.9541C16.5682 11.4669 17.0098 11.0889 17.5286 10.8717C18.0473 10.6545 18.6179 10.6086 19.1627 10.7403C19.7074 10.872 20.1999 11.1748 20.573 11.6075C21.1862 11.479 21.7745 11.245 22.3135 10.9152C22.1091 11.5856 21.6743 12.1544 21.0919 12.5132C21.6359 12.4353 22.1663 12.2765 22.6667 12.0417C22.304 12.6201 21.8452 13.127 21.3117 13.5386Z" fill="#110A1D"/>
</g>
<defs>
<clipPath id="clip0_268_409">
<rect width="32" height="32" fill="white"/>
</clipPath>
</defs>
</svg>
