<svg width="100" height="1335" viewBox="0 0 100 1335" fill="none" xmlns="http://www.w3.org/2000/svg">
<g opacity="0.2">
<path d="M49.7326 1334.22C37.0341 1334.22 24.3459 1329.39 14.6763 1319.72C-4.65252 1300.39 -4.65252 1268.95 14.6763 1249.62C24.0441 1240.25 36.4928 1235.1 49.7326 1235.1C62.9724 1235.1 75.4212 1240.25 84.7889 1249.62C104.118 1268.95 104.118 1300.39 84.7889 1319.72C75.1297 1329.38 62.4311 1334.22 49.7326 1334.22ZM17.2785 1317.12C35.1709 1335.01 64.2839 1335.01 82.1763 1317.12C100.069 1299.23 100.069 1270.11 82.1763 1252.22C73.506 1243.55 61.9836 1238.78 49.7222 1238.78C37.4609 1238.78 25.9384 1243.56 17.2681 1252.22C-0.624391 1270.11 -0.624391 1299.23 17.2681 1317.12H17.2785Z" fill="#9DADF2"/>
<path d="M49.077 1303.21C49.2539 1303.64 49.6703 1303.89 50.1074 1303.89C50.2532 1303.89 50.3989 1303.86 50.5446 1303.81C54.0419 1302.34 57.2269 1300.07 59.7458 1297.24C60.1518 1296.78 60.1101 1296.07 59.6521 1295.67C59.1942 1295.26 58.4864 1295.3 58.0804 1295.76C55.7801 1298.35 52.8761 1300.42 49.6806 1301.76C49.1186 1302 48.8479 1302.65 49.0873 1303.21H49.077Z" fill="#9DADF2"/>
<path d="M68.6226 1267.53L50.1369 1260.14C49.8663 1260.04 49.5748 1260.04 49.3042 1260.14L30.8185 1267.53C30.3917 1267.7 30.1211 1268.1 30.1211 1268.56V1281.8C30.1419 1294.02 37.8651 1305.07 49.3355 1309.27C49.4604 1309.31 49.5853 1309.33 49.7206 1309.33C49.8559 1309.33 49.9808 1309.31 50.1057 1309.27C61.576 1305.06 69.2992 1294.02 69.32 1281.8V1268.56C69.32 1268.1 69.0494 1267.7 68.6226 1267.53ZM67.0926 1281.8C67.0718 1292.92 60.0979 1303.05 49.7309 1307.03C39.3639 1303.05 32.3797 1292.92 32.3589 1281.8V1269.32L49.7309 1262.38L67.0926 1269.32V1281.8Z" fill="#9DADF2"/>
<path d="M42.0084 1269.27C41.7378 1269.16 41.4359 1269.16 41.1549 1269.27L36.752 1271.03C36.3253 1271.2 36.0547 1271.6 36.0547 1272.06V1276.75C36.0547 1277.37 36.5543 1277.87 37.1684 1277.87C37.7825 1277.87 38.2821 1277.37 38.2821 1276.75V1272.82L41.9772 1271.34C42.2582 1271.23 42.4664 1271.02 42.5913 1270.74C42.7058 1270.47 42.7058 1270.17 42.5913 1269.88C42.4768 1269.6 42.2686 1269.4 41.998 1269.27H42.0084Z" fill="#9DADF2"/>
<path d="M77.8877 1256.52C70.3727 1248.99 60.3699 1244.86 49.7323 1244.86C39.0947 1244.86 29.1024 1249 21.577 1256.52C6.05768 1272.04 6.05768 1297.3 21.577 1312.83C29.3418 1320.6 39.5318 1324.47 49.7323 1324.47C59.9328 1324.47 70.1229 1320.58 77.8877 1312.83C93.407 1297.31 93.407 1272.05 77.8877 1256.52ZM72.3815 1281.8C72.4127 1295.93 63.3884 1308.28 49.9301 1312.56C49.8052 1312.6 49.6698 1312.6 49.5345 1312.56C36.0762 1308.28 27.0519 1295.93 27.0832 1281.8V1266.18C27.0832 1265.92 27.2392 1265.68 27.4891 1265.58L49.4929 1256.78C49.5658 1256.75 49.649 1256.74 49.7323 1256.74C49.8156 1256.74 49.8989 1256.75 49.9717 1256.78L71.9756 1265.59C72.2254 1265.68 72.3815 1265.92 72.3815 1266.19V1281.81V1281.8Z" fill="#9DADF2"/>
<path d="M49.7326 1207.61C22.4099 1207.61 0.1875 1185.38 0.1875 1158.06C0.1875 1130.75 22.4203 1108.52 49.7326 1108.52C77.0448 1108.52 99.2777 1130.75 99.2777 1158.06C99.2777 1185.38 77.0448 1207.61 49.7326 1207.61ZM49.7326 1111.82C24.2314 1111.82 3.48702 1132.56 3.48702 1158.06C3.48702 1183.57 24.2314 1204.31 49.7326 1204.31C75.2337 1204.31 95.9782 1183.57 95.9782 1158.06C95.9782 1132.56 75.2337 1111.82 49.7326 1111.82Z" fill="#7DDACF"/>
<path d="M82.0648 1122.71L66.7266 1138.05L69.7442 1141.07L85.0824 1125.73L82.0648 1122.71Z" fill="#7DDACF"/>
<path d="M29.2639 1175.51L13.9257 1190.85L16.9432 1193.87L32.2815 1178.53L29.2639 1175.51Z" fill="#7DDACF"/>
<path d="M70.1934 1175.52L67.1758 1178.54L82.514 1193.87L85.5316 1190.86L70.1934 1175.52Z" fill="#7DDACF"/>
<path d="M16.9395 1122.26L13.9219 1125.27L29.2528 1140.61L32.2704 1137.59L16.9395 1122.26Z" fill="#7DDACF"/>
<path d="M61.8167 1159.4C62.816 1158.4 62.816 1156.78 61.8167 1155.8L59.6933 1153.68C58.6941 1152.68 57.0808 1152.68 56.092 1153.68L54.947 1154.83L53.6251 1153.51C52.6259 1152.51 51.0126 1152.51 50.0237 1153.51L48.8788 1154.66L47.5569 1153.33C46.5577 1152.33 44.9443 1152.33 43.9555 1153.33L36.9297 1160.35C36.8776 1160.41 36.8776 1160.49 36.9297 1160.55C37.8664 1161.49 39.3965 1161.49 40.3437 1160.55L44.8715 1156.02C45.3607 1155.54 46.1517 1155.54 46.6409 1156.02L46.974 1156.36C47.0365 1156.42 47.0365 1156.51 46.974 1156.58L43.1957 1160.35C43.1436 1160.41 43.1436 1160.49 43.1957 1160.55C44.1325 1161.49 45.6625 1161.49 46.6097 1160.55L50.9501 1156.21C51.4393 1155.72 52.2304 1155.72 52.7196 1156.21L53.0526 1156.54C53.1047 1156.6 53.1047 1156.68 53.0526 1156.74L49.4096 1160.39C49.3576 1160.44 49.3576 1160.52 49.4096 1160.58C50.3464 1161.52 51.8765 1161.52 52.8237 1160.58L57.0183 1156.39C57.5075 1155.9 58.2986 1155.9 58.7878 1156.39L59.506 1157.11C59.787 1157.39 59.787 1157.86 59.506 1158.14L59.3915 1158.25C59.1105 1158.53 58.6421 1158.53 58.3611 1158.25L57.4347 1157.33C57.3826 1157.27 57.2994 1157.27 57.2369 1157.33L55.634 1158.93C55.582 1158.98 55.582 1159.06 55.634 1159.13L57.0808 1160.57C58.08 1161.57 59.6933 1161.57 60.6822 1160.57L61.8272 1159.43L61.8167 1159.4Z" fill="#7DDACF"/>
<path d="M49.7337 1120.07C28.7499 1120.07 11.7422 1137.08 11.7422 1158.06C11.7422 1179.05 28.7499 1196.06 49.7337 1196.06C70.7175 1196.06 87.7252 1179.05 87.7252 1158.06C87.7252 1137.08 70.7175 1120.07 49.7337 1120.07ZM51.2846 1131.8C57.3841 1132.16 62.9215 1134.59 67.2098 1138.4L61.7245 1143.89C58.8621 1141.46 55.2503 1139.89 51.2846 1139.56V1131.8ZM48.1932 1131.8V1139.56C44.2276 1139.88 40.6158 1141.46 37.7534 1143.89L32.268 1138.4C36.5564 1134.59 42.0938 1132.16 48.1932 1131.8ZM30.0823 1140.59L35.5676 1146.07C33.1424 1148.94 31.5707 1152.55 31.2376 1156.51H23.4832C23.8371 1150.41 26.2727 1144.88 30.0823 1140.59ZM23.4832 1159.61H31.2376C31.5603 1163.57 33.1424 1167.18 35.5676 1170.04L30.0823 1175.53C26.2727 1171.24 23.8371 1165.7 23.4832 1159.61ZM48.1932 1184.32C42.0938 1183.96 36.5564 1181.53 32.268 1177.72L37.7534 1172.23C40.6158 1174.66 44.2276 1176.23 48.1932 1176.56V1184.32ZM33.7669 1158.05C33.7669 1149.24 40.9176 1142.09 49.7337 1142.09C58.5498 1142.09 65.7006 1149.24 65.7006 1158.05C65.7006 1166.87 58.5498 1174.02 49.7337 1174.02C40.9176 1174.02 33.7669 1166.87 33.7669 1158.05ZM51.2846 1184.32V1176.56C55.2503 1176.24 58.8621 1174.66 61.7245 1172.23L67.2098 1177.72C62.9215 1181.53 57.3841 1183.96 51.2846 1184.32ZM69.3956 1175.53L63.9103 1170.04C66.3355 1167.18 67.9072 1163.57 68.2403 1159.61H75.9947C75.6408 1165.7 73.2052 1171.24 69.3956 1175.53ZM68.2403 1156.51C67.9176 1152.55 66.3355 1148.94 63.9103 1146.07L69.3956 1140.59C73.2052 1144.88 75.6408 1150.41 75.9947 1156.51H68.2403Z" fill="#7DDACF"/>
<path d="M49.877 1084.15C22.5543 1084.15 0.331909 1061.92 0.331909 1034.61C0.331909 1007.3 22.5647 985.062 49.877 985.062C77.1893 985.062 99.4221 1007.3 99.4221 1034.61C99.4221 1061.92 77.1893 1084.15 49.877 1084.15ZM49.877 988.362C24.3758 988.362 3.63143 1009.11 3.63143 1034.61C3.63143 1060.11 24.3758 1080.85 49.877 1080.85C75.3782 1080.85 96.1226 1060.11 96.1226 1034.61C96.1226 1009.11 75.3782 988.362 49.877 988.362Z" fill="#9DADF2"/>
<path d="M65.9513 1003.67C65.7015 1003.67 65.4517 1003.62 65.2227 1003.51C60.4243 1001.13 55.2617 999.926 49.8804 999.926C44.4991 999.926 39.3365 1001.13 34.5381 1003.51C33.9032 1003.82 33.1433 1003.69 32.6437 1003.19L24.1294 994.68C23.7651 994.316 23.5986 993.816 23.661 993.306C23.7235 992.796 24.015 992.349 24.4521 992.088C32.1233 987.488 40.9186 985.062 49.8908 985.062C58.8631 985.062 67.6584 987.498 75.3295 992.088C75.7667 992.349 76.0581 992.796 76.1206 993.306C76.183 993.816 76.0061 994.316 75.6522 994.68L67.1379 1003.19C66.8153 1003.51 66.3989 1003.67 65.9618 1003.67H65.9513ZM49.8804 996.626C55.3658 996.626 60.6533 997.771 65.6078 1000.03L71.7698 993.868C65.0666 990.256 57.5412 988.362 49.8804 988.362C42.2196 988.362 34.6942 990.256 27.9911 993.868L34.153 1000.03C39.1075 997.771 44.3951 996.626 49.8804 996.626Z" fill="#9DADF2"/>
<path d="M49.8786 1084.15C40.9064 1084.15 32.1111 1081.72 24.4399 1077.13C24.0027 1076.87 23.7113 1076.42 23.6488 1075.91C23.5864 1075.4 23.7633 1074.9 24.1172 1074.54L32.6315 1066.02C33.1311 1065.52 33.9014 1065.4 34.5259 1065.71C39.3243 1068.08 44.4869 1069.29 49.8682 1069.29C55.2495 1069.29 60.4122 1068.08 65.2106 1065.71C65.8455 1065.4 66.6053 1065.52 67.1049 1066.02L75.6192 1074.54C75.9835 1074.9 76.15 1075.4 76.0876 1075.91C76.0251 1076.42 75.7337 1076.87 75.2965 1077.13C67.6253 1081.73 58.8301 1084.15 49.8578 1084.15H49.8786ZM27.9893 1075.35C34.6924 1078.96 42.2179 1080.85 49.8786 1080.85C57.5394 1080.85 65.0648 1078.96 71.768 1075.35L65.606 1069.19C60.6515 1071.44 55.364 1072.59 49.8786 1072.59C44.3933 1072.59 39.1057 1071.44 34.1512 1069.19L27.9893 1075.35Z" fill="#9DADF2"/>
<path d="M90.9826 1060.85C90.5454 1060.85 90.1291 1060.68 89.8168 1060.37L81.3026 1051.85C80.8029 1051.36 80.6781 1050.58 80.9903 1049.96C83.3635 1045.16 84.5709 1040 84.5709 1034.62C84.5709 1029.24 83.3635 1024.07 80.9903 1019.28C80.6781 1018.64 80.8029 1017.87 81.3026 1017.38L89.8168 1008.87C90.1811 1008.5 90.6807 1008.34 91.1908 1008.4C91.7008 1008.46 92.1483 1008.75 92.4086 1009.19C97.0092 1016.86 99.4344 1025.66 99.4344 1034.63C99.4344 1043.6 97.0092 1052.4 92.4086 1060.07C92.1483 1060.5 91.7008 1060.8 91.1908 1060.86C91.1179 1060.86 91.0554 1060.86 90.9826 1060.86V1060.85ZM84.4564 1050.33L90.6183 1056.5C94.2301 1049.79 96.1244 1042.27 96.1244 1034.61C96.1244 1026.95 94.2301 1019.42 90.6183 1012.72L84.4564 1018.88C86.7151 1023.83 87.86 1029.12 87.86 1034.61C87.86 1040.09 86.7151 1045.38 84.4564 1050.33Z" fill="#9DADF2"/>
<path d="M8.77305 1060.85C8.70019 1060.85 8.63774 1060.85 8.57529 1060.84C8.06526 1060.77 7.61771 1060.48 7.35749 1060.05C2.75688 1052.38 0.331665 1043.58 0.331665 1034.61C0.331665 1025.64 2.75688 1016.84 7.35749 1009.17C7.61771 1008.73 8.06526 1008.44 8.57529 1008.38C9.08531 1008.32 9.58493 1008.49 9.94923 1008.85L18.4635 1017.36C18.9631 1017.86 19.088 1018.63 18.7757 1019.25C16.4026 1024.05 15.1952 1029.22 15.1952 1034.6C15.1952 1039.98 16.4026 1045.14 18.7757 1049.94C19.088 1050.57 18.9631 1051.34 18.4635 1051.83L9.94923 1060.35C9.63697 1060.66 9.22063 1060.84 8.78347 1060.84L8.77305 1060.85ZM9.13733 1012.72C5.52553 1019.42 3.63118 1026.95 3.63118 1034.61C3.63118 1042.27 5.52553 1049.79 9.13733 1056.5L15.2993 1050.34C13.0406 1045.38 11.8956 1040.09 11.8956 1034.61C11.8956 1029.12 13.0406 1023.83 15.2993 1018.88L9.13733 1012.72Z" fill="#9DADF2"/>
<path d="M49.8781 996.616C28.9359 996.616 11.8866 1013.66 11.8866 1034.61C11.8866 1055.56 28.9255 1072.6 49.8781 1072.6C70.8307 1072.6 87.8696 1055.56 87.8696 1034.61C87.8696 1013.66 70.8307 996.616 49.8781 996.616ZM71.2575 1022.13C73.0582 1025.21 74.1511 1028.57 74.505 1032.14C74.5154 1032.29 74.4529 1032.42 74.328 1032.49C71.6113 1034.16 69.1757 1036.2 67.0732 1038.58C66.9795 1038.7 66.8234 1038.74 66.6881 1038.69L61.9938 1037.16C61.8585 1037.12 61.7648 1037 61.744 1036.86C61.2131 1032.97 60.0057 1029.26 58.153 1025.8C58.0905 1025.68 58.101 1025.53 58.1842 1025.42L61.0882 1021.42C61.1611 1021.33 61.2756 1021.26 61.3901 1021.26C61.4213 1021.26 61.4421 1021.26 61.4734 1021.26C64.5751 1021.95 67.7602 1022.18 70.9244 1021.92C71.0701 1021.91 71.2054 1021.98 71.2783 1022.11L71.2575 1022.13ZM59.1834 1037.51C59.1938 1037.62 59.1626 1037.72 59.1002 1037.79C56.6333 1040.63 53.4899 1042.91 50.0238 1044.37C49.9302 1044.41 49.8365 1044.41 49.7428 1044.37C46.2767 1042.9 43.1333 1040.62 40.6665 1037.79C40.604 1037.72 40.5728 1037.62 40.5832 1037.51C41.062 1033.74 42.2382 1030.14 44.0597 1026.81C44.1118 1026.72 44.195 1026.66 44.2991 1026.63C46.131 1026.25 48.0046 1026.05 49.8885 1026.05C51.7725 1026.05 53.646 1026.25 55.478 1026.63C55.5821 1026.66 55.6653 1026.72 55.7173 1026.81C57.5389 1030.14 58.7047 1033.74 59.1939 1037.51H59.1834ZM58.6214 1011.68C58.6214 1011.68 58.7463 1011.57 58.8712 1011.57C58.9128 1011.57 58.9649 1011.57 59.0169 1011.6C62.8473 1013.12 66.2717 1015.62 68.9363 1018.82C69.0716 1018.97 69.0196 1019.14 68.9884 1019.2C68.9675 1019.25 68.8739 1019.42 68.6553 1019.42C66.2926 1019.45 63.9402 1019.18 61.6607 1018.64C61.567 1018.62 61.4838 1018.56 61.4317 1018.47C60.2139 1016.47 59.2355 1014.3 58.5277 1012.05C58.4652 1011.85 58.5798 1011.72 58.6318 1011.68H58.6214ZM44.6218 1010.43C48.067 1009.69 51.6996 1009.69 55.1449 1010.43C55.2802 1010.46 55.3947 1010.56 55.4259 1010.7C56.1649 1013.79 57.3619 1016.75 58.9753 1019.48C59.0481 1019.61 59.0377 1019.76 58.9545 1019.89L56.0713 1023.87C55.988 1023.98 55.8423 1024.04 55.707 1024.01C51.8974 1023.24 47.8693 1023.24 44.0597 1024.01C43.9244 1024.04 43.7787 1023.98 43.6954 1023.87L40.8122 1019.89C40.729 1019.78 40.7185 1019.61 40.7914 1019.48C42.4047 1016.75 43.6017 1013.79 44.3407 1010.7C44.3719 1010.56 44.4865 1010.46 44.6218 1010.43ZM30.8303 1018.82C33.4949 1015.61 36.9194 1013.11 40.7498 1011.6C40.8018 1011.58 40.8538 1011.57 40.8955 1011.57C41.0308 1011.57 41.114 1011.65 41.1453 1011.68C41.1973 1011.73 41.3118 1011.85 41.2494 1012.05C40.5416 1014.31 39.5631 1016.47 38.3453 1018.47C38.2933 1018.56 38.21 1018.62 38.1164 1018.64C35.8369 1019.18 33.4846 1019.45 31.1218 1019.42C30.9032 1019.42 30.8095 1019.25 30.7887 1019.2C30.7575 1019.14 30.7054 1018.97 30.8407 1018.82H30.8303ZM28.5092 1022.13C28.5717 1022.01 28.6966 1021.94 28.8319 1021.94C28.8319 1021.94 28.8527 1021.94 28.8631 1021.94C32.0377 1022.19 35.2228 1021.97 38.3141 1021.28C38.4599 1021.25 38.6056 1021.31 38.6888 1021.43L41.5929 1025.43C41.6762 1025.54 41.6865 1025.7 41.6241 1025.81C39.7713 1029.27 38.5639 1032.98 38.0331 1036.87C38.0123 1037 37.9186 1037.12 37.7833 1037.17L33.089 1038.7C32.9537 1038.74 32.7975 1038.7 32.7039 1038.59C30.6013 1036.21 28.1657 1034.17 25.4491 1032.51C25.3346 1032.43 25.2617 1032.3 25.2721 1032.15C25.626 1028.58 26.7189 1025.21 28.5196 1022.14L28.5092 1022.13ZM29.6437 1047.77C29.5813 1047.97 29.4043 1048.01 29.3315 1048.02C29.2586 1048.02 29.0921 1048.02 28.9776 1047.86C26.7605 1044.37 25.4491 1040.33 25.1889 1036.19C25.1785 1035.98 25.3138 1035.88 25.3762 1035.85C25.4387 1035.82 25.6052 1035.74 25.7717 1035.87C27.6973 1037.23 29.446 1038.83 30.9761 1040.61C31.0385 1040.69 31.0697 1040.78 31.0593 1040.88C30.8719 1043.23 30.3931 1045.55 29.6333 1047.78L29.6437 1047.77ZM39.9275 1057.28C36.68 1055.85 33.8176 1053.76 31.4236 1051.07C31.3299 1050.97 31.2987 1050.81 31.3508 1050.69C32.5686 1047.75 33.3388 1044.66 33.6407 1041.5C33.6511 1041.35 33.7552 1041.23 33.8905 1041.19L38.5327 1039.68C38.5327 1039.68 38.6056 1039.66 38.6472 1039.66C38.7513 1039.66 38.845 1039.7 38.9179 1039.78C41.52 1042.7 44.7779 1045.07 48.3481 1046.64C48.4834 1046.7 48.5666 1046.83 48.5666 1046.97V1051.85C48.5666 1052 48.4834 1052.14 48.3481 1052.19C45.4337 1053.45 42.7274 1055.14 40.3022 1057.22C40.1981 1057.31 40.0419 1057.33 39.917 1057.27L39.9275 1057.28ZM56.3002 1058.31C56.2898 1058.38 56.2378 1058.55 56.0297 1058.6C52.0119 1059.62 47.7651 1059.62 43.7474 1058.6C43.5497 1058.55 43.4873 1058.38 43.4768 1058.31C43.4664 1058.24 43.4456 1058.07 43.6225 1057.93C45.5169 1056.53 47.5778 1055.35 49.7532 1054.45C49.8469 1054.4 49.9406 1054.4 50.0343 1054.45C52.1993 1055.35 54.2602 1056.53 56.165 1057.93C56.3315 1058.06 56.3211 1058.24 56.3106 1058.31H56.3002ZM68.3639 1051.08C65.9699 1053.77 63.1075 1055.85 59.86 1057.28C59.7247 1057.34 59.579 1057.31 59.4749 1057.23C57.0497 1055.15 54.3538 1053.46 51.429 1052.2C51.2937 1052.14 51.2104 1052.01 51.2104 1051.87V1046.98C51.2104 1046.84 51.2937 1046.7 51.429 1046.65C54.9992 1045.08 58.2675 1042.71 60.8592 1039.79C60.9321 1039.71 61.0258 1039.67 61.1298 1039.67C61.1715 1039.67 61.2027 1039.67 61.2443 1039.69L65.8866 1041.2C66.0219 1041.24 66.126 1041.36 66.1364 1041.51C66.4382 1044.67 67.2085 1047.75 68.4263 1050.7C68.4784 1050.82 68.4575 1050.98 68.3534 1051.08H68.3639ZM70.7995 1047.87C70.685 1048.05 70.508 1048.05 70.4456 1048.03C70.3727 1048.03 70.2062 1047.98 70.1333 1047.78C69.3839 1045.55 68.9051 1043.23 68.7074 1040.88C68.7074 1040.79 68.7281 1040.69 68.7906 1040.61C70.3207 1038.83 72.0693 1037.24 73.9949 1035.87C74.0678 1035.82 74.1406 1035.79 74.2031 1035.79C74.2864 1035.79 74.3488 1035.83 74.3904 1035.85C74.4529 1035.88 74.5987 1035.98 74.5779 1036.19C74.3176 1040.33 73.0061 1044.37 70.7891 1047.86L70.7995 1047.87Z" fill="#9DADF2"/>
<path d="M99.111 912.285C99.111 939.608 76.8782 961.841 49.5555 961.841C22.2328 961.841 0 939.608 0 912.285C0 884.963 22.2328 862.73 49.5555 862.73C76.8782 862.73 99.111 884.963 99.111 912.285ZM3.57015 912.285C3.57015 937.641 24.2001 958.271 49.5555 958.271C74.9109 958.271 95.5408 937.641 95.5408 912.285C95.5408 886.93 74.9109 866.3 49.5555 866.3C24.2001 866.3 3.57015 886.93 3.57015 912.285Z" fill="#478BF9"/>
<path d="M99.1136 791.149C99.1136 792.138 98.3122 792.929 97.3338 792.929C96.3553 792.929 95.5539 792.128 95.5539 791.149C95.5539 765.794 74.924 745.164 49.5685 745.164C24.2131 745.164 3.58317 765.794 3.58317 791.149C3.58317 792.138 2.78169 792.929 1.80327 792.929C0.824862 792.929 0.0234375 792.128 0.0234375 791.149C0.0234375 763.827 22.2563 741.594 49.5789 741.594C76.9016 741.594 99.1344 763.827 99.1344 791.149H99.1136Z" fill="#478BF9"/>
<path d="M40.012 903.532C40.012 905.353 41.2506 906.935 43.0201 907.372L46.382 908.215V899.566H43.9881C41.8023 899.566 40.0224 901.346 40.0224 903.532H40.012Z" fill="#478BF9"/>
<path d="M52.7293 925.005H55.1234C57.3092 925.005 59.0891 923.225 59.0891 921.039C59.0891 919.217 57.8504 917.635 56.081 917.198L52.719 916.355V925.005H52.7293Z" fill="#478BF9"/>
<path d="M49.5564 871.962C27.3235 871.962 9.2229 890.052 9.2229 912.296C9.2229 934.539 27.3131 952.629 49.5564 952.629C71.7996 952.629 89.8898 934.539 89.8898 912.296C89.8898 890.052 71.7996 871.962 49.5564 871.962ZM65.4608 905.926H59.1011V902.74C59.1011 900.992 57.6751 899.555 55.916 899.555H52.731V909.798L57.6335 911.026C62.2341 912.181 65.4504 916.293 65.4504 921.039C65.4504 926.732 60.8185 931.364 55.125 931.364H52.731V939.421H46.3713V931.364H43.1863C37.9195 931.364 33.6416 927.086 33.6416 921.82V918.635H40.0012V921.82C40.0012 923.568 41.4272 925.005 43.1863 925.005H46.3713V914.762L41.4688 913.534C36.8682 912.379 33.652 908.267 33.652 903.521C33.652 897.828 38.2838 893.196 43.9773 893.196H46.3713V885.14H52.731V893.196H55.916C61.1828 893.196 65.4608 897.474 65.4608 902.74V905.926Z" fill="#478BF9"/>
<path d="M99.173 790.39V909.985C99.173 910.974 98.3716 911.765 97.3932 911.765C96.4148 911.765 95.6133 910.963 95.6133 909.985V790.39C95.6133 789.401 96.4148 788.61 97.3932 788.61C98.3716 788.61 99.173 789.411 99.173 790.39Z" fill="#478BF9"/>
<path d="M3.63786 790.129V909.725C3.63786 910.714 2.83637 911.505 1.85796 911.505C0.879549 911.505 0.078125 910.703 0.078125 909.725V790.129C0.078125 789.141 0.879549 788.35 1.85796 788.35C2.83637 788.35 3.63786 789.151 3.63786 790.129Z" fill="#478BF9"/>
<path d="M49.7326 711C37.0341 711 24.3459 706.171 14.6763 696.501C-4.65252 677.172 -4.65252 645.728 14.6763 626.399C24.0441 617.031 36.4928 611.879 49.7326 611.879C62.9724 611.879 75.4212 617.031 84.7889 626.399C104.118 645.728 104.118 677.172 84.7889 696.501C75.1297 706.16 62.4311 711 49.7326 711ZM17.2785 693.899C35.1709 711.791 64.2839 711.791 82.1763 693.899C100.069 676.006 100.069 646.893 82.1763 629.001C73.506 620.33 61.9836 615.563 49.7222 615.563C37.4609 615.563 25.9384 620.341 17.2681 629.001C-0.624391 646.893 -0.624391 676.006 17.2681 693.899H17.2785Z" fill="#9DADF2"/>
<path d="M49.077 679.993C49.2539 680.42 49.6703 680.669 50.1074 680.669C50.2532 680.669 50.3989 680.638 50.5446 680.586C54.0419 679.118 57.2269 676.849 59.7458 674.018C60.1518 673.56 60.1101 672.853 59.6521 672.447C59.1942 672.041 58.4864 672.082 58.0804 672.54C55.7801 675.132 52.8761 677.203 49.6806 678.536C49.1186 678.775 48.8479 679.431 49.0873 679.993H49.077Z" fill="#9DADF2"/>
<path d="M68.6226 644.312L50.1369 636.922C49.8663 636.818 49.5748 636.818 49.3042 636.922L30.8185 644.312C30.3917 644.479 30.1211 644.885 30.1211 645.343V658.582C30.1419 670.802 37.8651 681.846 49.3355 686.051C49.4604 686.092 49.5853 686.113 49.7206 686.113C49.8559 686.113 49.9808 686.092 50.1057 686.051C61.576 681.835 69.2992 670.802 69.32 658.582V645.343C69.32 644.885 69.0494 644.479 68.6226 644.312ZM67.0926 658.582C67.0718 669.699 60.0979 679.826 49.7309 683.813C39.3639 679.826 32.3797 669.699 32.3589 658.582V646.102L49.7309 639.16L67.0926 646.102V658.582Z" fill="#9DADF2"/>
<path d="M42.0084 646.05C41.7378 645.936 41.4359 645.936 41.1549 646.05L36.752 647.809C36.3253 647.976 36.0547 648.382 36.0547 648.84V653.534C36.0547 654.148 36.5543 654.648 37.1684 654.648C37.7825 654.648 38.2821 654.148 38.2821 653.534V649.6L41.9772 648.122C42.2582 648.007 42.4664 647.799 42.5913 647.518C42.7058 647.247 42.7058 646.945 42.5913 646.664C42.4768 646.383 42.2686 646.175 41.998 646.05H42.0084Z" fill="#9DADF2"/>
<path d="M77.8877 633.3C70.3727 625.774 60.3699 621.642 49.7323 621.642C39.0947 621.642 29.1024 625.785 21.577 633.3C6.05768 648.819 6.05768 674.081 21.577 689.611C29.3418 697.375 39.5318 701.247 49.7323 701.247C59.9328 701.247 70.1229 697.365 77.8877 689.611C93.407 674.091 93.407 648.829 77.8877 633.3ZM72.3815 658.582C72.4127 672.707 63.3884 685.062 49.9301 689.34C49.8052 689.382 49.6698 689.382 49.5345 689.34C36.0762 685.062 27.0519 672.707 27.0832 658.582V642.959C27.0832 642.699 27.2392 642.459 27.4891 642.355L49.4929 633.56C49.5658 633.529 49.649 633.518 49.7323 633.518C49.8156 633.518 49.8989 633.529 49.9717 633.56L71.9756 642.366C72.2254 642.459 72.3815 642.699 72.3815 642.969V658.593V658.582Z" fill="#9DADF2"/>
<path d="M49.7326 584.39C22.4099 584.39 0.1875 562.157 0.1875 534.844C0.1875 507.532 22.4203 485.299 49.7326 485.299C77.0448 485.299 99.2777 507.532 99.2777 534.844C99.2777 562.157 77.0448 584.39 49.7326 584.39ZM49.7326 488.599C24.2314 488.599 3.48702 509.343 3.48702 534.844C3.48702 560.346 24.2314 581.09 49.7326 581.09C75.2337 581.09 95.9782 560.346 95.9782 534.844C95.9782 509.343 75.2337 488.599 49.7326 488.599Z" fill="#7DDACF"/>
<path d="M82.0648 499.491L66.7266 514.829L69.7442 517.847L85.0824 502.509L82.0648 499.491Z" fill="#7DDACF"/>
<path d="M29.2639 552.29L13.9257 567.628L16.9432 570.646L32.2815 555.307L29.2639 552.29Z" fill="#7DDACF"/>
<path d="M70.1934 552.298L67.1758 555.315L82.514 570.653L85.5316 567.636L70.1934 552.298Z" fill="#7DDACF"/>
<path d="M16.9395 499.036L13.9219 502.054L29.2528 517.385L32.2704 514.367L16.9395 499.036Z" fill="#7DDACF"/>
<path d="M61.8167 536.177C62.816 535.178 62.816 533.564 61.8167 532.575L59.6933 530.462C58.6941 529.463 57.0808 529.463 56.092 530.462L54.947 531.607L53.6251 530.285C52.6259 529.286 51.0126 529.286 50.0237 530.285L48.8788 531.441L47.5569 530.109C46.5577 529.109 44.9443 529.109 43.9555 530.109L36.9297 537.134C36.8776 537.186 36.8776 537.27 36.9297 537.332C37.8664 538.269 39.3965 538.269 40.3437 537.332L44.8715 532.804C45.3607 532.315 46.1517 532.315 46.6409 532.804L46.974 533.138C47.0365 533.2 47.0365 533.294 46.974 533.356L43.1957 537.134C43.1436 537.186 43.1436 537.27 43.1957 537.332C44.1325 538.269 45.6625 538.269 46.6097 537.332L50.9501 532.992C51.4393 532.503 52.2304 532.503 52.7196 532.992L53.0526 533.325C53.1047 533.377 53.1047 533.46 53.0526 533.523L49.4096 537.166C49.3576 537.218 49.3576 537.301 49.4096 537.363C50.3464 538.3 51.8765 538.3 52.8237 537.363L57.0183 533.169C57.5075 532.679 58.2986 532.679 58.7878 533.169L59.506 533.887C59.787 534.168 59.787 534.636 59.506 534.917L59.3915 535.032C59.1105 535.313 58.6421 535.313 58.3611 535.032L57.4347 534.105C57.3826 534.053 57.2994 534.053 57.2369 534.105L55.634 535.708C55.582 535.76 55.582 535.844 55.634 535.906L57.0808 537.353C58.08 538.352 59.6933 538.352 60.6822 537.353L61.8272 536.208L61.8167 536.177Z" fill="#7DDACF"/>
<path d="M49.7337 496.853C28.7499 496.853 11.7422 513.861 11.7422 534.844C11.7422 555.828 28.7499 572.836 49.7337 572.836C70.7175 572.836 87.7252 555.828 87.7252 534.844C87.7252 513.861 70.7175 496.853 49.7337 496.853ZM51.2846 508.583C57.3841 508.937 62.9215 511.373 67.2098 515.183L61.7245 520.668C58.8621 518.243 55.2503 516.671 51.2846 516.338V508.583ZM48.1932 508.583V516.338C44.2276 516.661 40.6158 518.243 37.7534 520.668L32.268 515.183C36.5564 511.373 42.0938 508.937 48.1932 508.583ZM30.0823 517.368L35.5676 522.854C33.1424 525.716 31.5707 529.328 31.2376 533.294H23.4832C23.8371 527.194 26.2727 521.657 30.0823 517.368ZM23.4832 536.385H31.2376C31.5603 540.351 33.1424 543.962 35.5676 546.825L30.0823 552.31C26.2727 548.022 23.8371 542.484 23.4832 536.385ZM48.1932 561.095C42.0938 560.741 36.5564 558.305 32.268 554.496L37.7534 549.011C40.6158 551.436 44.2276 553.008 48.1932 553.341V561.095ZM33.7669 534.834C33.7669 526.018 40.9176 518.867 49.7337 518.867C58.5498 518.867 65.7006 526.018 65.7006 534.834C65.7006 543.65 58.5498 550.801 49.7337 550.801C40.9176 550.801 33.7669 543.65 33.7669 534.834ZM51.2846 561.095V553.341C55.2503 553.018 58.8621 551.436 61.7245 549.011L67.2098 554.496C62.9215 558.305 57.3841 560.741 51.2846 561.095ZM69.3956 552.31L63.9103 546.825C66.3355 543.962 67.9072 540.351 68.2403 536.385H75.9947C75.6408 542.484 73.2052 548.022 69.3956 552.31ZM68.2403 533.294C67.9176 529.328 66.3355 525.716 63.9103 522.854L69.3956 517.368C73.2052 521.657 75.6408 527.194 75.9947 533.294H68.2403Z" fill="#7DDACF"/>
<path d="M49.877 460.932C22.5543 460.932 0.331909 438.7 0.331909 411.387C0.331909 384.075 22.5647 361.842 49.877 361.842C77.1893 361.842 99.4221 384.075 99.4221 411.387C99.4221 438.7 77.1893 460.932 49.877 460.932ZM49.877 365.142C24.3758 365.142 3.63143 385.886 3.63143 411.387C3.63143 436.889 24.3758 457.633 49.877 457.633C75.3782 457.633 96.1226 436.889 96.1226 411.387C96.1226 385.886 75.3782 365.142 49.877 365.142Z" fill="#9DADF2"/>
<path d="M65.9513 380.453C65.7015 380.453 65.4517 380.401 65.2227 380.286C60.4243 377.913 55.2617 376.706 49.8804 376.706C44.4991 376.706 39.3365 377.913 34.5381 380.286C33.9032 380.599 33.1433 380.474 32.6437 379.974L24.1294 371.46C23.7651 371.096 23.5986 370.596 23.661 370.086C23.7235 369.576 24.015 369.128 24.4521 368.868C32.1233 364.267 40.9186 361.842 49.8908 361.842C58.8631 361.842 67.6584 364.278 75.3295 368.868C75.7667 369.128 76.0581 369.576 76.1206 370.086C76.183 370.596 76.0061 371.096 75.6522 371.46L67.1379 379.974C66.8153 380.286 66.3989 380.453 65.9618 380.453H65.9513ZM49.8804 373.406C55.3658 373.406 60.6533 374.551 65.6078 376.81L71.7698 370.648C65.0666 367.036 57.5412 365.142 49.8804 365.142C42.2196 365.142 34.6942 367.036 27.9911 370.648L34.153 376.81C39.1075 374.551 44.3951 373.406 49.8804 373.406Z" fill="#9DADF2"/>
<path d="M49.8786 460.932C40.9064 460.932 32.1111 458.497 24.4399 453.907C24.0027 453.646 23.7113 453.199 23.6488 452.689C23.5864 452.179 23.7633 451.679 24.1172 451.315L32.6315 442.801C33.1311 442.301 33.9014 442.176 34.5259 442.488C39.3243 444.862 44.4869 446.069 49.8682 446.069C55.2495 446.069 60.4122 444.862 65.2106 442.488C65.8455 442.176 66.6053 442.301 67.1049 442.801L75.6192 451.315C75.9835 451.679 76.15 452.179 76.0876 452.689C76.0251 453.199 75.7337 453.646 75.2965 453.907C67.6253 458.507 58.8301 460.932 49.8578 460.932H49.8786ZM27.9893 452.127C34.6924 455.739 42.2179 457.633 49.8786 457.633C57.5394 457.633 65.0648 455.739 71.768 452.127L65.606 445.965C60.6515 448.224 55.364 449.368 49.8786 449.368C44.3933 449.368 39.1057 448.224 34.1512 445.965L27.9893 452.127Z" fill="#9DADF2"/>
<path d="M90.9826 437.628C90.5454 437.628 90.1291 437.461 89.8168 437.149L81.3026 428.634C80.8029 428.135 80.6781 427.365 80.9903 426.74C83.3635 421.942 84.5709 416.779 84.5709 411.398C84.5709 406.016 83.3635 400.854 80.9903 396.055C80.6781 395.42 80.8029 394.65 81.3026 394.161L89.8168 385.647C90.1811 385.282 90.6807 385.116 91.1908 385.178C91.7008 385.241 92.1483 385.532 92.4086 385.969C97.0092 393.641 99.4344 402.436 99.4344 411.408C99.4344 420.38 97.0092 429.176 92.4086 436.847C92.1483 437.284 91.7008 437.575 91.1908 437.638C91.1179 437.638 91.0554 437.638 90.9826 437.638V437.628ZM84.4564 427.115L90.6183 433.277C94.2301 426.574 96.1244 419.048 96.1244 411.387C96.1244 403.727 94.2301 396.201 90.6183 389.498L84.4564 395.66C86.7151 400.614 87.86 405.902 87.86 411.387C87.86 416.873 86.7151 422.16 84.4564 427.115Z" fill="#9DADF2"/>
<path d="M8.77305 437.628C8.70019 437.628 8.63774 437.628 8.57529 437.617C8.06526 437.555 7.61771 437.263 7.35749 436.826C2.75688 429.155 0.331665 420.36 0.331665 411.387C0.331665 402.415 2.75688 393.62 7.35749 385.949C7.61771 385.512 8.06526 385.22 8.57529 385.158C9.08531 385.095 9.58493 385.272 9.94923 385.626L18.4635 394.14C18.9631 394.64 19.088 395.41 18.7757 396.035C16.4026 400.833 15.1952 405.996 15.1952 411.377C15.1952 416.758 16.4026 421.921 18.7757 426.719C19.088 427.354 18.9631 428.124 18.4635 428.614L9.94923 437.128C9.63697 437.44 9.22063 437.617 8.78347 437.617L8.77305 437.628ZM9.13733 389.498C5.52553 396.201 3.63118 403.727 3.63118 411.387C3.63118 419.048 5.52553 426.574 9.13733 433.277L15.2993 427.115C13.0406 422.16 11.8956 416.873 11.8956 411.387C11.8956 405.902 13.0406 400.614 15.2993 395.66L9.13733 389.498Z" fill="#9DADF2"/>
<path d="M49.8781 373.396C28.9359 373.396 11.8866 390.435 11.8866 411.387C11.8866 432.34 28.9255 449.379 49.8781 449.379C70.8307 449.379 87.8696 432.34 87.8696 411.387C87.8696 390.435 70.8307 373.396 49.8781 373.396ZM71.2575 398.907C73.0582 401.988 74.1511 405.35 74.505 408.92C74.5154 409.066 74.4529 409.201 74.328 409.274C71.6113 410.94 69.1757 412.98 67.0732 415.363C66.9795 415.478 66.8234 415.519 66.6881 415.467L61.9938 413.937C61.8585 413.896 61.7648 413.781 61.744 413.636C61.2131 409.753 60.0057 406.037 58.153 402.582C58.0905 402.457 58.101 402.311 58.1842 402.196L61.0882 398.2C61.1611 398.106 61.2756 398.043 61.3901 398.043C61.4213 398.043 61.4421 398.043 61.4734 398.043C64.5751 398.73 67.7602 398.959 70.9244 398.699C71.0701 398.689 71.2054 398.762 71.2783 398.886L71.2575 398.907ZM59.1834 414.291C59.1938 414.395 59.1626 414.499 59.1002 414.572C56.6333 417.414 53.4899 419.693 50.0238 421.151C49.9302 421.192 49.8365 421.192 49.7428 421.151C46.2767 419.683 43.1333 417.403 40.6665 414.572C40.604 414.499 40.5728 414.395 40.5832 414.291C41.062 410.523 42.2382 406.922 44.0597 403.591C44.1118 403.498 44.195 403.435 44.2991 403.414C46.131 403.029 48.0046 402.831 49.8885 402.831C51.7725 402.831 53.646 403.029 55.478 403.414C55.5821 403.435 55.6653 403.498 55.7173 403.591C57.5389 406.922 58.7047 410.523 59.1939 414.291H59.1834ZM58.6214 388.457C58.6214 388.457 58.7463 388.353 58.8712 388.353C58.9128 388.353 58.9649 388.353 59.0169 388.384C62.8473 389.904 66.2717 392.402 68.9363 395.597C69.0716 395.754 69.0196 395.92 68.9884 395.983C68.9675 396.035 68.8739 396.201 68.6553 396.201C66.2926 396.232 63.9402 395.962 61.6607 395.42C61.567 395.4 61.4838 395.337 61.4317 395.254C60.2139 393.245 59.2355 391.08 58.5277 388.832C58.4652 388.634 58.5798 388.499 58.6318 388.457H58.6214ZM44.6218 387.208C48.067 386.469 51.6996 386.469 55.1449 387.208C55.2802 387.239 55.3947 387.343 55.4259 387.479C56.1649 390.57 57.3619 393.526 58.9753 396.264C59.0481 396.388 59.0377 396.545 58.9545 396.669L56.0713 400.646C55.988 400.76 55.8423 400.823 55.707 400.791C51.8974 400.021 47.8693 400.021 44.0597 400.791C43.9244 400.823 43.7787 400.76 43.6954 400.646L40.8122 396.669C40.729 396.555 40.7185 396.388 40.7914 396.264C42.4047 393.526 43.6017 390.57 44.3407 387.479C44.3719 387.343 44.4865 387.239 44.6218 387.208ZM30.8303 395.597C33.4949 392.392 36.9194 389.893 40.7498 388.384C40.8018 388.363 40.8538 388.353 40.8955 388.353C41.0308 388.353 41.114 388.426 41.1453 388.457C41.1973 388.509 41.3118 388.634 41.2494 388.832C40.5416 391.09 39.5631 393.245 38.3453 395.254C38.2933 395.337 38.21 395.4 38.1164 395.42C35.8369 395.962 33.4846 396.232 31.1218 396.201C30.9032 396.201 30.8095 396.035 30.7887 395.983C30.7575 395.92 30.7054 395.754 30.8407 395.597H30.8303ZM28.5092 398.907C28.5717 398.793 28.6966 398.72 28.8319 398.72C28.8319 398.72 28.8527 398.72 28.8631 398.72C32.0377 398.97 35.2228 398.751 38.3141 398.064C38.4599 398.033 38.6056 398.085 38.6888 398.21L41.5929 402.207C41.6762 402.321 41.6865 402.477 41.6241 402.592C39.7713 406.048 38.5639 409.764 38.0331 413.646C38.0123 413.781 37.9186 413.896 37.7833 413.948L33.089 415.478C32.9537 415.519 32.7975 415.478 32.7039 415.374C30.6013 412.99 28.1657 410.95 25.4491 409.285C25.3346 409.212 25.2617 409.077 25.2721 408.931C25.626 405.361 26.7189 401.988 28.5196 398.918L28.5092 398.907ZM29.6437 424.554C29.5813 424.752 29.4043 424.794 29.3315 424.804C29.2586 424.804 29.0921 424.804 28.9776 424.637C26.7605 421.151 25.4491 417.112 25.1889 412.969C25.1785 412.761 25.3138 412.657 25.3762 412.626C25.4387 412.595 25.6052 412.522 25.7717 412.647C27.6973 414.01 29.446 415.613 30.9761 417.393C31.0385 417.466 31.0697 417.56 31.0593 417.664C30.8719 420.006 30.3931 422.327 29.6333 424.565L29.6437 424.554ZM39.9275 434.057C36.68 432.631 33.8176 430.539 31.4236 427.854C31.3299 427.75 31.2987 427.594 31.3508 427.469C32.5686 424.533 33.3388 421.442 33.6407 418.278C33.6511 418.132 33.7552 418.007 33.8905 417.966L38.5327 416.456C38.5327 416.456 38.6056 416.435 38.6472 416.435C38.7513 416.435 38.845 416.477 38.9179 416.56C41.52 419.475 44.7779 421.848 48.3481 423.42C48.4834 423.482 48.5666 423.607 48.5666 423.753V428.634C48.5666 428.78 48.4834 428.915 48.3481 428.967C45.4337 430.227 42.7274 431.924 40.3022 433.995C40.1981 434.089 40.0419 434.109 39.917 434.047L39.9275 434.057ZM56.3002 435.088C56.2898 435.161 56.2378 435.327 56.0297 435.379C52.0119 436.399 47.7651 436.399 43.7474 435.379C43.5497 435.327 43.4873 435.161 43.4768 435.088C43.4664 435.015 43.4456 434.848 43.6225 434.713C45.5169 433.308 47.5778 432.132 49.7532 431.226C49.8469 431.184 49.9406 431.184 50.0343 431.226C52.1993 432.132 54.2602 433.308 56.165 434.713C56.3315 434.838 56.3211 435.015 56.3106 435.088H56.3002ZM68.3639 427.864C65.9699 430.55 63.1075 432.631 59.86 434.057C59.7247 434.12 59.579 434.088 59.4749 434.005C57.0497 431.934 54.3538 430.237 51.429 428.978C51.2937 428.915 51.2104 428.791 51.2104 428.645V423.763C51.2104 423.617 51.2937 423.482 51.429 423.43C54.9992 421.858 58.2675 419.485 60.8592 416.571C60.9321 416.487 61.0258 416.446 61.1298 416.446C61.1715 416.446 61.2027 416.446 61.2443 416.467L65.8866 417.976C66.0219 418.018 66.126 418.142 66.1364 418.288C66.4382 421.452 67.2085 424.533 68.4263 427.479C68.4784 427.604 68.4575 427.76 68.3534 427.864H68.3639ZM70.7995 424.648C70.685 424.825 70.508 424.825 70.4456 424.814C70.3727 424.814 70.2062 424.762 70.1333 424.565C69.3839 422.327 68.9051 420.006 68.7074 417.664C68.7074 417.57 68.7281 417.466 68.7906 417.393C70.3207 415.613 72.0693 414.021 73.9949 412.647C74.0678 412.595 74.1406 412.574 74.2031 412.574C74.2864 412.574 74.3488 412.605 74.3904 412.626C74.4529 412.657 74.5987 412.761 74.5779 412.969C74.3176 417.112 73.0061 421.151 70.7891 424.637L70.7995 424.648Z" fill="#9DADF2"/>
<path d="M99.111 289.065C99.111 316.388 76.8782 338.621 49.5555 338.621C22.2328 338.621 0 316.388 0 289.065C0 261.742 22.2328 239.51 49.5555 239.51C76.8782 239.51 99.111 261.742 99.111 289.065ZM3.57015 289.065C3.57015 314.421 24.2001 335.051 49.5555 335.051C74.9109 335.051 95.5408 314.421 95.5408 289.065C95.5408 263.71 74.9109 243.08 49.5555 243.08C24.2001 243.08 3.57015 263.71 3.57015 289.065Z" fill="#478BF9"/>
<path d="M99.1136 167.929C99.1136 168.918 98.3122 169.709 97.3338 169.709C96.3553 169.709 95.5539 168.908 95.5539 167.929C95.5539 142.574 74.924 121.944 49.5685 121.944C24.2131 121.944 3.58317 142.574 3.58317 167.929C3.58317 168.918 2.78169 169.709 1.80327 169.709C0.824862 169.709 0.0234375 168.908 0.0234375 167.929C0.0234375 140.607 22.2563 118.374 49.5789 118.374C76.9016 118.374 99.1344 140.607 99.1344 167.929H99.1136Z" fill="#478BF9"/>
<path d="M40.012 280.312C40.012 282.133 41.2506 283.715 43.0201 284.152L46.382 284.995V276.346H43.9881C41.8023 276.346 40.0224 278.126 40.0224 280.312H40.012Z" fill="#478BF9"/>
<path d="M52.7293 301.784H55.1234C57.3092 301.784 59.0891 300.005 59.0891 297.819C59.0891 295.997 57.8504 294.415 56.081 293.978L52.719 293.135V301.784H52.7293Z" fill="#478BF9"/>
<path d="M49.5564 248.742C27.3235 248.742 9.2229 266.832 9.2229 289.076C9.2229 311.319 27.3131 329.409 49.5564 329.409C71.7996 329.409 89.8898 311.319 89.8898 289.076C89.8898 266.832 71.7996 248.742 49.5564 248.742ZM65.4608 282.705H59.1011V279.52C59.1011 277.772 57.6751 276.335 55.916 276.335H52.731V286.577L57.6335 287.806C62.2341 288.961 65.4504 293.072 65.4504 297.819C65.4504 303.512 60.8185 308.144 55.125 308.144H52.731V316.2H46.3713V308.144H43.1863C37.9195 308.144 33.6416 303.866 33.6416 298.599V295.414H40.0012V298.599C40.0012 300.348 41.4272 301.784 43.1863 301.784H46.3713V291.542L41.4688 290.314C36.8682 289.159 33.652 285.047 33.652 280.301C33.652 274.608 38.2838 269.976 43.9773 269.976H46.3713V261.919H52.731V269.976H55.916C61.1828 269.976 65.4608 274.254 65.4608 279.52V282.705Z" fill="#478BF9"/>
<path d="M99.173 167.17V286.765C99.173 287.754 98.3716 288.545 97.3932 288.545C96.4148 288.545 95.6133 287.743 95.6133 286.765V167.17C95.6133 166.181 96.4148 165.39 97.3932 165.39C98.3716 165.39 99.173 166.191 99.173 167.17Z" fill="#478BF9"/>
<path d="M3.63786 166.909V286.505C3.63786 287.493 2.83637 288.284 1.85796 288.284C0.879549 288.284 0.078125 287.483 0.078125 286.505V166.909C0.078125 165.921 0.879549 165.13 1.85796 165.13C2.83637 165.13 3.63786 165.931 3.63786 166.909Z" fill="#478BF9"/>
<path d="M49.7326 99.1214C37.0341 99.1214 24.3459 94.2919 14.6763 84.6223C-4.65252 65.2934 -4.65252 33.8489 14.6763 14.5201C24.0441 5.15229 36.4928 0 49.7326 0C62.9724 0 75.4212 5.15229 84.7889 14.5201C104.118 33.8489 104.118 65.2934 84.7889 84.6223C75.1297 94.2815 62.4311 99.1214 49.7326 99.1214ZM17.2785 82.0201C35.1709 99.9126 64.2839 99.9126 82.1763 82.0201C100.069 64.1277 100.069 35.0147 82.1763 17.1222C73.506 8.45183 61.9836 3.6847 49.7222 3.6847C37.4609 3.6847 25.9384 8.46223 17.2681 17.1222C-0.624391 35.0147 -0.624391 64.1277 17.2681 82.0201H17.2785Z" fill="#9DADF2"/>
<path d="M49.077 68.1142C49.2539 68.541 49.6703 68.7907 50.1074 68.7907C50.2532 68.7907 50.3989 68.7595 50.5446 68.7074C54.0419 67.2398 57.2269 64.9707 59.7458 62.1395C60.1518 61.6816 60.1101 60.9739 59.6521 60.5679C59.1942 60.162 58.4864 60.2036 58.0804 60.6616C55.7801 63.2533 52.8761 65.3247 49.6806 66.657C49.1186 66.8964 48.8479 67.5521 49.0873 68.1142H49.077Z" fill="#9DADF2"/>
<path d="M68.6226 32.4336L50.1369 25.0434C49.8663 24.9393 49.5748 24.9393 49.3042 25.0434L30.8185 32.4336C30.3917 32.6001 30.1211 33.006 30.1211 33.464V46.7038C30.1419 58.9235 37.8651 69.9671 49.3355 74.1722C49.4604 74.2138 49.5853 74.2347 49.7206 74.2347C49.8559 74.2347 49.9808 74.2138 50.1057 74.1722C61.576 69.9567 69.2992 58.9235 69.32 46.7038V33.464C69.32 33.006 69.0494 32.6001 68.6226 32.4336ZM67.0926 46.7038C67.0718 57.8202 60.0979 67.9478 49.7309 71.9343C39.3639 67.9478 32.3797 57.8202 32.3589 46.7038V34.2238L49.7309 27.2813L67.0926 34.2238V46.7038Z" fill="#9DADF2"/>
<path d="M42.0084 34.1716C41.7378 34.0571 41.4359 34.0571 41.1549 34.1716L36.752 35.9307C36.3253 36.0972 36.0547 36.5032 36.0547 36.9611V41.6554C36.0547 42.2695 36.5543 42.7691 37.1684 42.7691C37.7825 42.7691 38.2821 42.2695 38.2821 41.6554V37.7209L41.9772 36.243C42.2582 36.1285 42.4664 35.9203 42.5913 35.6392C42.7058 35.3686 42.7058 35.0668 42.5913 34.7858C42.4768 34.5047 42.2686 34.2965 41.998 34.1716H42.0084Z" fill="#9DADF2"/>
<path d="M77.8877 21.4211C70.3727 13.8957 60.3699 9.76343 49.7323 9.76343C39.0947 9.76343 29.1024 13.9061 21.577 21.4211C6.05768 36.9404 6.05768 62.2022 21.577 77.7319C29.3418 85.4967 39.5318 89.3687 49.7323 89.3687C59.9328 89.3687 70.1229 85.4863 77.8877 77.7319C93.407 62.2126 93.407 36.9508 77.8877 21.4211ZM72.3815 46.7037C72.4127 60.8282 63.3884 73.1833 49.9301 77.4612C49.8052 77.5029 49.6698 77.5029 49.5345 77.4612C36.0762 73.1833 27.0519 60.8282 27.0832 46.7037V31.0803C27.0832 30.8201 27.2392 30.5807 27.4891 30.4766L49.4929 21.6813C49.5658 21.6501 49.649 21.6397 49.7323 21.6397C49.8156 21.6397 49.8989 21.6501 49.9717 21.6813L71.9756 30.4871C72.2254 30.5807 72.3815 30.8201 72.3815 31.0907V46.7141V46.7037Z" fill="#9DADF2"/>
</g>
</svg>
