<svg width="101" height="1299" viewBox="0 0 101 1299" fill="none" xmlns="http://www.w3.org/2000/svg">
<g opacity="0.4">
<path d="M49.9826 1298.22C37.2841 1298.22 24.5959 1293.39 14.9263 1283.72C-4.40252 1264.39 -4.40252 1232.95 14.9263 1213.62C24.2941 1204.25 36.7428 1199.1 49.9826 1199.1C63.2224 1199.1 75.6711 1204.25 85.0389 1213.62C104.368 1232.95 104.368 1264.39 85.0389 1283.72C75.3797 1293.38 62.6811 1298.22 49.9826 1298.22ZM17.5285 1281.12C35.4209 1299.01 64.5339 1299.01 82.4263 1281.12C100.319 1263.23 100.319 1234.11 82.4263 1216.22C73.7559 1207.55 62.2335 1202.78 49.9722 1202.78C37.7108 1202.78 26.1884 1207.56 17.5181 1216.22C-0.374391 1234.11 -0.374391 1263.23 17.5181 1281.12H17.5285Z" fill="#9DADF2"/>
<path d="M49.3269 1267.21C49.5039 1267.64 49.9202 1267.89 50.3574 1267.89C50.5031 1267.89 50.6489 1267.86 50.7946 1267.81C54.2919 1266.34 57.4769 1264.07 59.9958 1261.24C60.4017 1260.78 60.3601 1260.07 59.9021 1259.67C59.4441 1259.26 58.7364 1259.3 58.3304 1259.76C56.0301 1262.35 53.1261 1264.42 49.9306 1265.76C49.3686 1266 49.0979 1266.65 49.3373 1267.21H49.3269Z" fill="#9DADF2"/>
<path d="M68.8728 1231.53L50.3871 1224.14C50.1164 1224.04 49.825 1224.04 49.5544 1224.14L31.0686 1231.53C30.6419 1231.7 30.3712 1232.1 30.3712 1232.56V1245.8C30.392 1258.02 38.1153 1269.07 49.5856 1273.27C49.7105 1273.31 49.8354 1273.33 49.9707 1273.33C50.106 1273.33 50.2309 1273.31 50.3558 1273.27C61.8261 1269.06 69.5494 1258.02 69.5702 1245.8V1232.56C69.5702 1232.1 69.2996 1231.7 68.8728 1231.53ZM67.3427 1245.8C67.3219 1256.92 60.3481 1267.05 49.9811 1271.03C39.6141 1267.05 32.6299 1256.92 32.6091 1245.8V1233.32L49.9811 1226.38L67.3427 1233.32V1245.8Z" fill="#9DADF2"/>
<path d="M42.2585 1233.27C41.9878 1233.16 41.686 1233.16 41.4049 1233.27L37.0021 1235.03C36.5754 1235.2 36.3047 1235.6 36.3047 1236.06V1240.75C36.3047 1241.37 36.8043 1241.87 37.4184 1241.87C38.0325 1241.87 38.5322 1241.37 38.5322 1240.75V1236.82L42.2272 1235.34C42.5082 1235.23 42.7164 1235.02 42.8413 1234.74C42.9558 1234.47 42.9558 1234.17 42.8413 1233.88C42.7268 1233.6 42.5187 1233.4 42.248 1233.27H42.2585Z" fill="#9DADF2"/>
<path d="M78.1259 1220.52C70.6109 1212.99 60.6082 1208.86 49.9706 1208.86C39.333 1208.86 29.3407 1213 21.8152 1220.52C6.29596 1236.04 6.29596 1261.3 21.8152 1276.83C29.5801 1284.6 39.7701 1288.47 49.9706 1288.47C60.171 1288.47 70.3611 1284.58 78.1259 1276.83C93.6452 1261.31 93.6452 1236.05 78.1259 1220.52ZM72.6198 1245.8C72.651 1259.93 63.6267 1272.28 50.1684 1276.56C50.0434 1276.6 49.9081 1276.6 49.7728 1276.56C36.3144 1272.28 27.2902 1259.93 27.3214 1245.8V1230.18C27.3214 1229.92 27.4775 1229.68 27.7273 1229.58L49.7312 1220.78C49.8041 1220.75 49.8873 1220.74 49.9706 1220.74C50.0539 1220.74 50.1371 1220.75 50.21 1220.78L72.2138 1229.59C72.4636 1229.68 72.6198 1229.92 72.6198 1230.19V1245.81V1245.8Z" fill="#9DADF2"/>
<path d="M50.1273 1171.61C22.8046 1171.61 0.582153 1149.38 0.582153 1122.06C0.582153 1094.75 22.815 1072.52 50.1273 1072.52C77.4396 1072.52 99.6724 1094.75 99.6724 1122.06C99.6724 1149.38 77.4396 1171.61 50.1273 1171.61ZM50.1273 1075.82C24.6261 1075.82 3.88174 1096.56 3.88174 1122.06C3.88174 1147.57 24.6261 1168.31 50.1273 1168.31C75.6285 1168.31 96.3729 1147.57 96.3729 1122.06C96.3729 1096.56 75.6285 1075.82 50.1273 1075.82Z" fill="white"/>
<path d="M66.1979 1091.12C65.9481 1091.12 65.6983 1091.07 65.4693 1090.95C60.6709 1088.58 55.5082 1087.37 50.127 1087.37C44.7457 1087.37 39.583 1088.58 34.7847 1090.95C34.1497 1091.27 33.3899 1091.14 32.8903 1090.64L24.376 1082.13C24.0117 1081.76 23.8452 1081.26 23.9076 1080.75C23.9701 1080.24 24.2615 1079.79 24.6987 1079.53C32.3699 1074.93 41.1652 1072.51 50.1374 1072.51C59.1096 1072.51 67.9049 1074.94 75.5761 1079.53C76.0133 1079.79 76.3047 1080.24 76.3671 1080.75C76.4296 1081.26 76.2527 1081.76 75.8988 1082.13L67.3845 1090.64C67.0618 1090.95 66.6455 1091.12 66.2083 1091.12H66.1979ZM50.127 1084.07C55.6123 1084.07 60.8999 1085.22 65.8544 1087.48L72.0163 1081.31C65.3131 1077.7 57.7877 1075.81 50.127 1075.81C42.4662 1075.81 34.9408 1077.7 28.2376 1081.31L34.3996 1087.48C39.3541 1085.22 44.6416 1084.07 50.127 1084.07Z" fill="white"/>
<path d="M50.1252 1171.61C41.1529 1171.61 32.3576 1169.17 24.6865 1164.58C24.2493 1164.32 23.9579 1163.88 23.8954 1163.37C23.833 1162.86 24.0099 1162.36 24.3638 1161.99L32.8781 1153.48C33.3777 1152.98 34.1479 1152.85 34.7725 1153.17C39.5708 1155.54 44.7335 1156.75 50.1148 1156.75C55.496 1156.75 60.6587 1155.54 65.4571 1153.17C66.092 1152.85 66.8519 1152.98 67.3515 1153.48L75.8657 1161.99C76.23 1162.36 76.3966 1162.86 76.3341 1163.37C76.2717 1163.88 75.9802 1164.32 75.5431 1164.58C67.8719 1169.18 59.0766 1171.61 50.1044 1171.61H50.1252ZM28.2358 1162.8C34.939 1166.42 42.4644 1168.31 50.1252 1168.31C57.7859 1168.31 65.3114 1166.42 72.0145 1162.8L65.8526 1156.64C60.8981 1158.9 55.6105 1160.05 50.1252 1160.05C44.6398 1160.05 39.3523 1158.9 34.3978 1156.64L28.2358 1162.8Z" fill="white"/>
<path d="M91.2331 1148.29C90.7959 1148.29 90.3796 1148.13 90.0673 1147.82L81.553 1139.3C81.0534 1138.8 80.9285 1138.03 81.2408 1137.41C83.614 1132.61 84.8213 1127.45 84.8213 1122.06C84.8213 1116.68 83.614 1111.52 81.2408 1106.72C80.9285 1106.09 81.0534 1105.32 81.553 1104.83L90.0673 1096.31C90.4316 1095.95 90.9312 1095.78 91.4413 1095.85C91.9513 1095.91 92.3988 1096.2 92.659 1096.64C97.2597 1104.31 99.6849 1113.1 99.6849 1122.07C99.6849 1131.05 97.2597 1139.84 92.659 1147.51C92.3988 1147.95 91.9513 1148.24 91.4413 1148.3C91.3684 1148.3 91.3059 1148.3 91.2331 1148.3V1148.29ZM84.7068 1137.78L90.8688 1143.94C94.4806 1137.24 96.3749 1129.71 96.3749 1122.05C96.3749 1114.39 94.4806 1106.87 90.8688 1100.16L84.7068 1106.33C86.9655 1111.28 88.1105 1116.57 88.1105 1122.05C88.1105 1127.54 86.9655 1132.83 84.7068 1137.78Z" fill="white"/>
<path d="M9.02385 1148.29C8.95099 1148.29 8.88853 1148.29 8.82608 1148.28C8.31606 1148.22 7.86844 1147.93 7.60823 1147.49C3.00761 1139.82 0.582397 1131.03 0.582397 1122.05C0.582397 1113.08 3.00761 1104.29 7.60823 1096.62C7.86844 1096.18 8.31606 1095.89 8.82608 1095.82C9.33611 1095.76 9.83573 1095.94 10.2 1096.29L18.7143 1104.81C19.2139 1105.31 19.3388 1106.08 19.0265 1106.7C16.6534 1111.5 15.446 1116.66 15.446 1122.04C15.446 1127.42 16.6534 1132.59 19.0265 1137.39C19.3388 1138.02 19.2139 1138.79 18.7143 1139.28L10.2 1147.79C9.88777 1148.11 9.47137 1148.28 9.03421 1148.28L9.02385 1148.29ZM9.38813 1100.16C5.77633 1106.87 3.88198 1114.39 3.88198 1122.05C3.88198 1129.71 5.77633 1137.24 9.38813 1143.94L15.55 1137.78C13.2913 1132.83 12.1464 1127.54 12.1464 1122.05C12.1464 1116.57 13.2913 1111.28 15.55 1106.33L9.38813 1100.16Z" fill="white"/>
<path d="M50.1284 1084.07C29.1862 1084.07 12.1368 1101.11 12.1368 1122.06C12.1368 1143.02 29.1758 1160.06 50.1284 1160.06C71.0809 1160.06 88.1199 1143.02 88.1199 1122.06C88.1199 1101.11 71.0809 1084.07 50.1284 1084.07ZM71.5077 1109.58C73.3084 1112.67 74.4013 1116.03 74.7552 1119.6C74.7656 1119.74 74.7031 1119.88 74.5782 1119.95C71.8616 1121.62 69.4259 1123.66 67.3234 1126.04C67.2297 1126.16 67.0736 1126.2 66.9383 1126.14L62.244 1124.61C62.1087 1124.57 62.015 1124.46 61.9942 1124.31C61.4633 1120.43 60.256 1116.71 58.4032 1113.26C58.3408 1113.13 58.3512 1112.99 58.4344 1112.87L61.3384 1108.88C61.4113 1108.78 61.5258 1108.72 61.6403 1108.72C61.6715 1108.72 61.6924 1108.72 61.7236 1108.72C64.8254 1109.41 68.0104 1109.64 71.1746 1109.38C71.3203 1109.37 71.4557 1109.44 71.5285 1109.56L71.5077 1109.58ZM59.4337 1124.97C59.4441 1125.07 59.4128 1125.18 59.3504 1125.25C56.8835 1128.09 53.7402 1130.37 50.2741 1131.83C50.1804 1131.87 50.0867 1131.87 49.993 1131.83C46.527 1130.36 43.3835 1128.08 40.9167 1125.25C40.8542 1125.18 40.823 1125.07 40.8335 1124.97C41.3123 1121.2 42.4884 1117.6 44.3099 1114.27C44.3619 1114.17 44.4453 1114.11 44.5493 1114.09C46.3813 1113.71 48.2548 1113.51 50.1388 1113.51C52.0227 1113.51 53.8963 1113.71 55.7282 1114.09C55.8323 1114.11 55.9155 1114.17 55.9676 1114.27C57.7891 1117.6 58.9549 1121.2 59.4441 1124.97H59.4337ZM58.8716 1099.13C58.8716 1099.13 58.9965 1099.03 59.1214 1099.03C59.1631 1099.03 59.2151 1099.03 59.2671 1099.06C63.0975 1100.58 66.522 1103.08 69.1866 1106.27C69.3219 1106.43 69.2698 1106.6 69.2386 1106.66C69.2178 1106.71 69.1241 1106.88 68.9055 1106.88C66.5428 1106.91 64.1904 1106.64 61.9109 1106.1C61.8173 1106.08 61.734 1106.01 61.6819 1105.93C60.4641 1103.92 59.4857 1101.76 58.7779 1099.51C58.7155 1099.31 58.8299 1099.18 58.882 1099.13H58.8716ZM44.872 1097.89C48.3173 1097.15 51.9499 1097.15 55.3951 1097.89C55.5304 1097.92 55.6449 1098.02 55.6761 1098.16C56.4151 1101.25 57.6122 1104.2 59.2255 1106.94C59.2984 1107.07 59.2879 1107.22 59.2047 1107.35L56.3215 1111.32C56.2382 1111.44 56.0925 1111.5 55.9572 1111.47C52.1476 1110.7 48.1195 1110.7 44.3099 1111.47C44.1746 1111.5 44.0289 1111.44 43.9456 1111.32L41.0624 1107.35C40.9791 1107.23 40.9687 1107.07 41.0416 1106.94C42.6549 1104.2 43.8519 1101.25 44.591 1098.16C44.6222 1098.02 44.7367 1097.92 44.872 1097.89ZM31.0806 1106.27C33.7452 1103.07 37.1696 1100.57 41 1099.06C41.052 1099.04 41.1041 1099.03 41.1457 1099.03C41.281 1099.03 41.3643 1099.1 41.3955 1099.13C41.4475 1099.19 41.562 1099.31 41.4996 1099.51C40.7918 1101.77 39.8134 1103.92 38.5956 1105.93C38.5435 1106.01 38.4603 1106.08 38.3666 1106.1C36.0871 1106.64 33.7347 1106.91 31.372 1106.88C31.1534 1106.88 31.0597 1106.71 31.0389 1106.66C31.0077 1106.6 30.9556 1106.43 31.0909 1106.27H31.0806ZM28.7594 1109.58C28.8219 1109.47 28.9468 1109.4 29.0821 1109.4C29.0821 1109.4 29.1029 1109.4 29.1133 1109.4C32.288 1109.65 35.473 1109.43 38.5644 1108.74C38.7101 1108.71 38.8558 1108.76 38.9391 1108.89L41.8431 1112.88C41.9263 1113 41.9368 1113.15 41.8743 1113.27C40.0216 1116.72 38.8142 1120.44 38.2833 1124.32C38.2625 1124.46 38.1688 1124.57 38.0335 1124.63L33.3392 1126.16C33.2039 1126.2 33.0478 1126.16 32.9541 1126.05C30.8516 1123.67 28.4159 1121.63 25.6993 1119.96C25.5848 1119.89 25.5119 1119.75 25.5223 1119.61C25.8762 1116.04 26.9691 1112.67 28.7698 1109.59L28.7594 1109.58ZM29.894 1135.23C29.8315 1135.43 29.6546 1135.47 29.5817 1135.48C29.5089 1135.48 29.3423 1135.48 29.2278 1135.31C27.0108 1131.83 25.6993 1127.79 25.439 1123.65C25.4286 1123.44 25.5639 1123.33 25.6264 1123.3C25.6888 1123.27 25.8554 1123.2 26.0219 1123.32C27.9475 1124.69 29.6962 1126.29 31.2262 1128.07C31.2887 1128.14 31.3199 1128.24 31.3095 1128.34C31.1222 1130.68 30.6434 1133 29.8836 1135.24L29.894 1135.23ZM40.1777 1144.73C36.9302 1143.31 34.0678 1141.22 31.6738 1138.53C31.5801 1138.43 31.549 1138.27 31.601 1138.15C32.8188 1135.21 33.589 1132.12 33.8909 1128.96C33.9013 1128.81 34.0054 1128.68 34.1407 1128.64L38.7829 1127.13C38.7829 1127.13 38.8558 1127.11 38.8974 1127.11C39.0015 1127.11 39.0952 1127.15 39.168 1127.24C41.7702 1130.15 45.0281 1132.53 48.5983 1134.1C48.7336 1134.16 48.8169 1134.28 48.8169 1134.43V1139.31C48.8169 1139.46 48.7336 1139.59 48.5983 1139.64C45.6838 1140.9 42.9776 1142.6 40.5524 1144.67C40.4483 1144.77 40.2922 1144.79 40.1673 1144.72L40.1777 1144.73ZM56.5505 1145.76C56.5401 1145.84 56.488 1146 56.2798 1146.06C52.2621 1147.08 48.0154 1147.08 43.9977 1146.06C43.7999 1146 43.7374 1145.84 43.727 1145.76C43.7166 1145.69 43.6958 1145.53 43.8728 1145.39C45.7671 1143.99 47.8281 1142.81 50.0035 1141.9C50.0971 1141.86 50.1908 1141.86 50.2845 1141.9C52.4494 1142.81 54.5104 1143.99 56.4152 1145.39C56.5817 1145.52 56.5713 1145.69 56.5609 1145.76H56.5505ZM68.6141 1138.54C66.2201 1141.23 63.3577 1143.31 60.1102 1144.73C59.9749 1144.8 59.8292 1144.77 59.7251 1144.68C57.2999 1142.61 54.6041 1140.91 51.6792 1139.66C51.5439 1139.59 51.4606 1139.47 51.4606 1139.32V1134.44C51.4606 1134.29 51.5439 1134.16 51.6792 1134.11C55.2494 1132.54 58.5177 1130.16 61.1095 1127.25C61.1823 1127.16 61.276 1127.12 61.3801 1127.12C61.4217 1127.12 61.4529 1127.12 61.4946 1127.14L66.1368 1128.65C66.2722 1128.69 66.3762 1128.82 66.3866 1128.97C66.6885 1132.13 67.4587 1135.21 68.6766 1138.16C68.7286 1138.28 68.7078 1138.44 68.6037 1138.54H68.6141ZM71.0497 1135.33C70.9352 1135.5 70.7583 1135.5 70.6958 1135.49C70.623 1135.49 70.4564 1135.44 70.3835 1135.24C69.6341 1133 69.1553 1130.68 68.9575 1128.34C68.9575 1128.25 68.9784 1128.14 69.0408 1128.07C70.5709 1126.29 72.3195 1124.7 74.2451 1123.32C74.318 1123.27 74.3909 1123.25 74.4533 1123.25C74.5366 1123.25 74.599 1123.28 74.6407 1123.3C74.7031 1123.33 74.8488 1123.44 74.828 1123.65C74.5678 1127.79 73.2563 1131.83 71.0393 1135.31L71.0497 1135.33Z" fill="white"/>
<path d="M49.9826 1048.15C37.2841 1048.15 24.5959 1043.32 14.9263 1033.65C-4.40252 1014.32 -4.40252 982.88 14.9263 963.551C24.2941 954.184 36.7428 949.031 49.9826 949.031C63.2224 949.031 75.6711 954.184 85.0389 963.551C104.368 982.88 104.368 1014.32 85.0389 1033.65C75.3797 1043.31 62.6811 1048.15 49.9826 1048.15ZM17.5285 1031.05C35.4209 1048.94 64.5339 1048.94 82.4263 1031.05C100.319 1013.16 100.319 984.046 82.4263 966.153C73.7559 957.483 62.2335 952.716 49.9722 952.716C37.7108 952.716 26.1884 957.493 17.5181 966.153C-0.374391 984.046 -0.374391 1013.16 17.5181 1031.05H17.5285Z" fill="#9DADF2"/>
<path d="M49.3269 1017.16C49.5039 1017.58 49.9202 1017.83 50.3574 1017.83C50.5031 1017.83 50.6489 1017.8 50.7946 1017.75C54.2919 1016.28 57.4769 1014.01 59.9958 1011.18C60.4017 1010.72 60.3601 1010.02 59.9021 1009.61C59.4441 1009.2 58.7364 1009.25 58.3304 1009.7C56.0301 1012.3 53.1261 1014.37 49.9306 1015.7C49.3686 1015.94 49.0979 1016.59 49.3373 1017.16H49.3269Z" fill="#9DADF2"/>
<path d="M68.8728 981.465L50.3871 974.074C50.1164 973.97 49.825 973.97 49.5544 974.074L31.0686 981.465C30.6419 981.631 30.3712 982.037 30.3712 982.495V995.735C30.392 1007.95 38.1153 1019 49.5856 1023.2C49.7105 1023.24 49.8354 1023.27 49.9707 1023.27C50.106 1023.27 50.2309 1023.24 50.3558 1023.2C61.8261 1018.99 69.5494 1007.95 69.5702 995.735V982.495C69.5702 982.037 69.2996 981.631 68.8728 981.465ZM67.3427 995.735C67.3219 1006.85 60.3481 1016.98 49.9811 1020.97C39.6141 1016.98 32.6299 1006.85 32.6091 995.735V983.255L49.9811 976.312L67.3427 983.255V995.735Z" fill="#9DADF2"/>
<path d="M42.2585 983.203C41.9878 983.088 41.686 983.088 41.4049 983.203L37.0021 984.962C36.5754 985.128 36.3047 985.534 36.3047 985.992V990.687C36.3047 991.301 36.8043 991.8 37.4184 991.8C38.0325 991.8 38.5322 991.301 38.5322 990.687V986.752L42.2272 985.274C42.5082 985.16 42.7164 984.951 42.8413 984.67C42.9558 984.4 42.9558 984.098 42.8413 983.817C42.7268 983.536 42.5187 983.328 42.248 983.203H42.2585Z" fill="#9DADF2"/>
<path d="M78.1259 970.452C70.6109 962.927 60.6082 958.795 49.9706 958.795C39.333 958.795 29.3407 962.937 21.8152 970.452C6.29596 985.972 6.29596 1011.23 21.8152 1026.76C29.5801 1034.53 39.7701 1038.4 49.9706 1038.4C60.171 1038.4 70.3611 1034.52 78.1259 1026.76C93.6452 1011.24 93.6452 985.982 78.1259 970.452ZM72.6198 995.735C72.651 1009.86 63.6267 1022.21 50.1684 1026.49C50.0434 1026.53 49.9081 1026.53 49.7728 1026.49C36.3144 1022.21 27.2902 1009.86 27.3214 995.735V980.111C27.3214 979.851 27.4775 979.612 27.7273 979.508L49.7312 970.712C49.8041 970.681 49.8873 970.671 49.9706 970.671C50.0539 970.671 50.1371 970.681 50.21 970.712L72.2138 979.518C72.4636 979.612 72.6198 979.851 72.6198 980.122V995.745V995.735Z" fill="#9DADF2"/>
<path d="M50.3967 925.841C23.074 925.841 0.851562 903.608 0.851562 876.296C0.851562 848.983 23.0844 826.751 50.3967 826.751C77.709 826.751 99.9418 848.983 99.9418 876.296C99.9418 903.608 77.709 925.841 50.3967 925.841ZM50.3967 830.05C24.8955 830.05 4.15108 850.795 4.15108 876.296C4.15108 901.797 24.8955 922.541 50.3967 922.541C75.8979 922.541 96.6423 901.797 96.6423 876.296C96.6423 850.795 75.8979 830.05 50.3967 830.05Z" fill="#478BF9"/>
<path d="M82.7174 840.949L67.3792 856.287L70.3968 859.305L85.7351 843.967L82.7174 840.949Z" fill="#478BF9"/>
<path d="M29.9243 893.741L14.5861 909.079L17.6036 912.097L32.9419 896.758L29.9243 893.741Z" fill="#478BF9"/>
<path d="M70.8616 893.756L67.844 896.773L83.1822 912.112L86.1999 909.094L70.8616 893.756Z" fill="#478BF9"/>
<path d="M17.5999 840.487L14.5823 843.505L29.9132 858.836L32.9308 855.818L17.5999 840.487Z" fill="#478BF9"/>
<path d="M62.4808 877.628C63.48 876.629 63.48 875.016 62.4808 874.027L60.3574 871.914C59.3582 870.915 57.7449 870.915 56.7561 871.914L55.6111 873.059L54.2892 871.737C53.29 870.738 51.6766 870.738 50.6878 871.737L49.5429 872.892L48.221 871.56C47.2217 870.561 45.6084 870.561 44.6195 871.56L37.5937 878.586C37.5417 878.638 37.5417 878.721 37.5937 878.783C38.5305 879.72 40.0606 879.72 41.0078 878.783L45.5355 874.256C46.0247 873.767 46.8158 873.767 47.305 874.256L47.6381 874.589C47.7005 874.651 47.7005 874.745 47.6381 874.807L43.8597 878.586C43.8077 878.638 43.8077 878.721 43.8597 878.783C44.7965 879.72 46.3266 879.72 47.2738 878.783L51.6142 874.443C52.1034 873.954 52.8945 873.954 53.3837 874.443L53.7167 874.776C53.7688 874.828 53.7688 874.911 53.7167 874.974L50.0737 878.617C50.0217 878.669 50.0217 878.752 50.0737 878.815C51.0105 879.751 52.5405 879.751 53.4877 878.815L57.6824 874.62C58.1716 874.131 58.9626 874.131 59.4519 874.62L60.1701 875.338C60.4511 875.619 60.4511 876.088 60.1701 876.369L60.0556 876.483C59.7745 876.764 59.3062 876.764 59.0251 876.483L58.0987 875.557C58.0467 875.505 57.9634 875.505 57.901 875.557L56.2981 877.16C56.246 877.212 56.246 877.295 56.2981 877.357L57.7449 878.804C58.7441 879.804 60.3574 879.804 61.3462 878.804L62.4912 877.659L62.4808 877.628Z" fill="#478BF9"/>
<path d="M50.3978 838.304C29.414 838.304 12.4062 855.312 12.4062 876.296C12.4062 897.28 29.414 914.287 50.3978 914.287C71.3816 914.287 88.3893 897.28 88.3893 876.296C88.3893 855.312 71.3816 838.304 50.3978 838.304ZM51.9486 850.035C58.0481 850.389 63.5855 852.824 67.8738 856.634L62.3885 862.119C59.5261 859.694 55.9143 858.122 51.9486 857.789V850.035ZM48.8572 850.035V857.789C44.8916 858.112 41.2798 859.694 38.4174 862.119L32.932 856.634C37.2204 852.824 42.7578 850.389 48.8572 850.035ZM30.7463 858.82L36.2316 864.305C33.8064 867.167 32.2347 870.779 31.9016 874.745H24.1472C24.5011 868.645 26.9367 863.108 30.7463 858.82ZM24.1472 877.836H31.9016C32.2243 881.802 33.8064 885.414 36.2316 888.276L30.7463 893.761C26.9367 889.473 24.5011 883.936 24.1472 877.836ZM48.8572 902.546C42.7578 902.192 37.2204 899.757 32.932 895.947L38.4174 890.462C41.2798 892.887 44.8916 894.459 48.8572 894.792V902.546ZM34.4309 876.285C34.4309 867.469 41.5817 860.318 50.3978 860.318C59.2139 860.318 66.3646 867.469 66.3646 876.285C66.3646 885.101 59.2139 892.252 50.3978 892.252C41.5817 892.252 34.4309 885.101 34.4309 876.285ZM51.9486 902.546V894.792C55.9143 894.469 59.5261 892.887 62.3885 890.462L67.8738 895.947C63.5855 899.757 58.0481 902.192 51.9486 902.546ZM70.0596 893.761L64.5743 888.276C66.9995 885.414 68.5712 881.802 68.9043 877.836H76.6587C76.3048 883.936 73.8692 889.473 70.0596 893.761ZM68.9043 874.745C68.5816 870.779 66.9995 867.167 64.5743 864.305L70.0596 858.82C73.8692 863.108 76.3048 868.645 76.6587 874.745H68.9043Z" fill="#478BF9"/>
<path d="M15.4923 781.48C-3.99743 761.99 -3.99743 730.281 15.4923 710.792C34.982 691.302 66.6907 691.302 86.1804 710.792C105.67 730.281 105.67 761.99 86.1804 781.48C66.6907 800.97 34.982 800.97 15.4923 781.48ZM83.8248 713.147C65.6338 694.956 36.039 694.956 17.8527 713.147C-0.338378 731.338 -0.338378 760.933 17.8527 779.119C36.0437 797.31 65.6385 797.31 83.8248 779.119C102.016 760.928 102.016 731.334 83.8248 713.147Z" fill="white"/>
<path d="M84.3642 735.533C84.1888 735.358 84.0466 735.135 83.966 734.888C82.236 729.77 79.4111 725.234 75.572 721.395C71.7375 717.56 67.1969 714.735 62.078 713C61.4002 712.768 60.9452 712.138 60.9452 711.422V699.274C60.9452 698.762 61.1822 698.279 61.585 697.961C61.9927 697.644 62.5188 697.535 63.0117 697.658C71.7612 699.848 79.7713 704.388 86.17 710.792C92.5686 717.195 97.1093 725.201 99.299 733.95C99.4222 734.448 99.3085 734.974 98.9957 735.381C98.6781 735.789 98.1946 736.021 97.6828 736.021H85.5349C85.0798 736.021 84.6628 735.836 84.3547 735.528L84.3642 735.533ZM77.9276 719.039C81.8426 722.954 84.7955 727.542 86.7198 732.689H95.5072C93.2985 725.333 89.284 718.612 83.8191 713.147C78.3542 707.683 71.6333 703.668 64.282 701.464V710.251C69.4293 712.171 74.0173 715.124 77.9323 719.044L77.9276 719.039Z" fill="white"/>
<path d="M15.491 781.48C9.09237 775.081 4.54697 767.071 2.35722 758.322C2.23399 757.824 2.34775 757.298 2.66057 756.895C2.97813 756.487 3.46156 756.255 3.97345 756.255H16.1214C16.8371 756.255 17.4722 756.71 17.6997 757.388C19.4297 762.507 22.2545 767.043 26.0937 770.882C29.9281 774.716 34.4688 777.541 39.5877 779.276C40.2655 779.503 40.7205 780.139 40.7205 780.854V793.002C40.7205 793.514 40.4835 793.998 40.0806 794.315C39.673 794.633 39.1469 794.742 38.6492 794.618C29.8997 792.429 21.8944 787.888 15.491 781.489V781.48ZM6.15848 759.582C8.36719 766.938 12.3817 773.659 17.8466 779.124C23.3115 784.589 30.0325 788.604 37.3885 790.812V782.025C32.2412 780.105 27.6531 777.153 23.7381 773.238C19.8231 769.323 16.8702 764.734 14.9459 759.587H6.15848V759.582Z" fill="white"/>
<path d="M61.4412 794.173C61.1284 793.86 60.953 793.438 60.953 792.993V780.845C60.953 780.129 61.408 779.494 62.0858 779.266C67.2047 777.536 71.7406 774.712 75.5798 770.872C79.4189 767.033 82.2391 762.497 83.9738 757.378C84.2013 756.701 84.8365 756.246 85.5522 756.246H97.7001C98.2119 756.246 98.6954 756.483 99.013 756.885C99.3305 757.288 99.4395 757.819 99.3163 758.312C97.1218 767.062 92.5811 775.067 86.1825 781.47C79.7839 787.874 71.7738 792.414 63.0243 794.604C62.5266 794.727 62.0005 794.614 61.5976 794.301C61.5455 794.253 61.4933 794.211 61.446 794.163L61.4412 794.173ZM64.285 782.02V790.808C71.6411 788.599 78.362 784.584 83.8269 779.119C89.2918 773.655 93.3016 766.934 95.515 759.578H86.7276C84.808 764.725 81.8551 769.308 77.9354 773.228C74.0204 777.143 69.4324 780.101 64.285 782.02Z" fill="white"/>
<path d="M2.79401 735.533C2.74661 735.486 2.69923 735.434 2.66131 735.382C2.34375 734.979 2.23473 734.448 2.35796 733.95C4.54771 725.201 9.08837 717.191 15.4917 710.792C21.8951 704.393 29.9004 699.848 38.65 697.658C39.1476 697.535 39.6738 697.649 40.0766 697.961C40.4795 698.279 40.7165 698.762 40.7165 699.274V711.422C40.7165 712.138 40.2615 712.773 39.5837 713.001C34.4648 714.731 29.9289 717.555 26.0897 721.395C22.2553 725.229 19.4304 729.77 17.6957 734.889C17.4682 735.566 16.8331 736.021 16.1174 736.021H3.96948C3.52395 736.021 3.09735 735.846 2.78927 735.538L2.79401 735.533ZM37.3845 701.464C30.0285 703.673 23.3075 707.687 17.8426 713.152C12.3777 718.617 8.36793 725.338 6.15448 732.694H14.9419C16.8615 727.547 19.8143 722.963 23.7341 719.044C27.6491 715.129 32.2372 712.176 37.3845 710.252V701.464Z" fill="white"/>
<path d="M77.9316 719.039C62.9921 704.099 38.6773 704.094 23.7377 719.039C8.79339 733.983 8.79813 758.293 23.7377 773.233C38.6773 788.172 62.9873 788.177 77.9316 773.233C92.876 758.288 92.8712 733.978 77.9316 719.039Z" fill="white"/>
<path d="M64.6546 759.813L37.1269 759.996C35.9673 760.004 35.0335 760.95 35.0411 762.11L35.0477 763.091C35.0553 764.25 36.0017 765.184 37.1613 765.176L64.6889 764.994C65.8485 764.986 66.7824 764.04 66.7747 762.88L66.7682 761.899C66.7605 760.74 65.8142 759.806 64.6546 759.813Z" fill="#110A1D"/>
<path d="M40.8773 743.197C40.5787 743.197 40.2754 743.131 40.0005 742.998L37.8534 741.96C36.9197 741.505 36.4931 740.401 36.8817 739.439L37.8676 736.983C38.171 736.235 38.8867 735.746 39.6924 735.742C40.0384 735.742 40.3797 735.827 40.683 736.002L43.2425 737.462C43.7212 737.732 44.0672 738.201 44.1904 738.742C44.3136 739.282 44.2046 739.851 43.8918 740.306L42.4889 742.339C42.1239 742.87 41.5172 743.192 40.8726 743.192L40.8773 743.197Z" fill="#110A1D"/>
<path d="M60.6922 743.065C60.0476 743.065 59.4362 742.756 59.0665 742.23L57.6777 740.273C57.3554 739.823 57.2417 739.254 57.3555 738.713C57.4692 738.173 57.8105 737.699 58.2892 737.42L60.9292 735.87C61.2278 735.694 61.5691 735.6 61.9151 735.595C62.7208 735.59 63.446 736.069 63.7588 736.813L64.7542 739.197C65.1523 740.154 64.7399 741.268 63.8157 741.733L61.5691 742.856C61.2989 742.989 60.9955 743.065 60.6969 743.065H60.6922Z" fill="#110A1D"/>
<path d="M38.7148 758.156C37.5061 758.165 36.4208 757.407 36.0084 756.269L31.4156 743.628C31.1218 743.771 30.8089 743.88 30.4914 743.96C30.1169 744.055 29.7377 744.102 29.3538 744.102C29.1311 744.102 28.913 744.093 28.6997 744.064C26.3062 743.761 24.4909 741.709 24.4767 739.292C24.4577 736.618 26.619 734.429 29.2922 734.41C31.9654 734.391 34.1552 736.552 34.1694 739.225C34.1694 739.841 34.0651 740.434 33.8471 740.988C33.7286 741.292 33.5817 741.581 33.411 741.856L42.1463 746.084L48.8294 736.4C48.5497 736.282 48.2795 736.135 48.0236 735.96C47.5401 735.633 47.1183 735.225 46.777 734.746C46.1988 733.931 45.886 732.969 45.8812 731.973C45.8623 729.3 48.0236 727.111 50.6968 727.092C50.8153 727.092 50.9385 727.092 51.057 727.101C53.4506 727.262 55.3844 729.182 55.5597 731.575C55.6403 732.708 55.3417 733.794 54.6971 734.718C54.3559 735.201 53.9387 735.614 53.46 735.941C53.2088 736.116 52.9387 736.263 52.659 736.381L59.4605 745.965L68.0536 741.666C67.8925 741.358 67.7645 741.036 67.6697 740.699C67.556 740.292 67.4944 739.865 67.4944 739.434C67.4944 739.239 67.5038 739.045 67.5228 738.856C67.7977 736.419 69.8547 734.571 72.3051 734.557C74.9783 734.538 77.1681 736.699 77.1823 739.372C77.2013 741.922 75.2201 744.064 72.6749 744.24L72.3715 744.249C71.8786 744.249 71.3952 744.183 70.9259 744.041C70.6226 743.946 70.3287 743.827 70.0538 743.676L65.7406 756.07C65.3473 757.212 64.2666 757.98 63.0579 757.99L38.7148 758.151V758.156Z" fill="#110A1D"/>
<path d="M49.9826 675C37.2841 675 24.5959 670.171 14.9263 660.501C-4.40252 641.172 -4.40252 609.728 14.9263 590.399C24.2941 581.031 36.7428 575.879 49.9826 575.879C63.2224 575.879 75.6711 581.031 85.0389 590.399C104.368 609.728 104.368 641.172 85.0389 660.501C75.3797 670.16 62.6811 675 49.9826 675ZM17.5285 657.899C35.4209 675.791 64.5339 675.791 82.4263 657.899C100.319 640.006 100.319 610.893 82.4263 593.001C73.7559 584.33 62.2335 579.563 49.9722 579.563C37.7108 579.563 26.1884 584.341 17.5181 593.001C-0.374391 610.893 -0.374391 640.006 17.5181 657.899H17.5285Z" fill="#9DADF2"/>
<path d="M49.3269 643.993C49.5039 644.42 49.9202 644.669 50.3574 644.669C50.5031 644.669 50.6489 644.638 50.7946 644.586C54.2919 643.118 57.4769 640.849 59.9958 638.018C60.4017 637.56 60.3601 636.853 59.9021 636.447C59.4441 636.041 58.7364 636.082 58.3304 636.54C56.0301 639.132 53.1261 641.203 49.9306 642.536C49.3686 642.775 49.0979 643.431 49.3373 643.993H49.3269Z" fill="#9DADF2"/>
<path d="M68.8728 608.312L50.3871 600.922C50.1164 600.818 49.825 600.818 49.5544 600.922L31.0686 608.312C30.6419 608.479 30.3712 608.884 30.3712 609.342V622.582C30.392 634.802 38.1153 645.846 49.5856 650.051C49.7105 650.092 49.8354 650.113 49.9707 650.113C50.106 650.113 50.2309 650.092 50.3558 650.051C61.8261 645.835 69.5494 634.802 69.5702 622.582V609.342C69.5702 608.884 69.2996 608.479 68.8728 608.312ZM67.3427 622.582C67.3219 633.699 60.3481 643.826 49.9811 647.813C39.6141 643.826 32.6299 633.699 32.6091 622.582V610.102L49.9811 603.16L67.3427 610.102V622.582Z" fill="#9DADF2"/>
<path d="M42.2585 610.05C41.9878 609.936 41.686 609.936 41.4049 610.05L37.0021 611.809C36.5754 611.976 36.3047 612.382 36.3047 612.84V617.534C36.3047 618.148 36.8043 618.648 37.4184 618.648C38.0325 618.648 38.5322 618.148 38.5322 617.534V613.6L42.2272 612.122C42.5082 612.007 42.7164 611.799 42.8413 611.518C42.9558 611.247 42.9558 610.945 42.8413 610.664C42.7268 610.383 42.5187 610.175 42.248 610.05H42.2585Z" fill="#9DADF2"/>
<path d="M78.1259 597.3C70.6109 589.774 60.6082 585.642 49.9706 585.642C39.333 585.642 29.3407 589.785 21.8152 597.3C6.29596 612.819 6.29596 638.081 21.8152 653.61C29.5801 661.375 39.7701 665.247 49.9706 665.247C60.171 665.247 70.3611 661.365 78.1259 653.61C93.6452 638.091 93.6452 612.829 78.1259 597.3ZM72.6198 622.582C72.651 636.707 63.6267 649.062 50.1684 653.34C50.0434 653.381 49.9081 653.381 49.7728 653.34C36.3144 649.062 27.2902 636.707 27.3214 622.582V606.959C27.3214 606.699 27.4775 606.459 27.7273 606.355L49.7312 597.56C49.8041 597.529 49.8873 597.518 49.9706 597.518C50.0539 597.518 50.1371 597.529 50.21 597.56L72.2138 606.366C72.4636 606.459 72.6198 606.699 72.6198 606.969V622.593V622.582Z" fill="#9DADF2"/>
<path d="M50.1273 548.389C22.8046 548.389 0.582153 526.156 0.582153 498.844C0.582153 471.532 22.815 449.299 50.1273 449.299C77.4396 449.299 99.6724 471.532 99.6724 498.844C99.6724 526.156 77.4396 548.389 50.1273 548.389ZM50.1273 452.599C24.6261 452.599 3.88174 473.343 3.88174 498.844C3.88174 524.345 24.6261 545.09 50.1273 545.09C75.6285 545.09 96.3729 524.345 96.3729 498.844C96.3729 473.343 75.6285 452.599 50.1273 452.599Z" fill="white"/>
<path d="M66.1979 467.899C65.9481 467.899 65.6983 467.847 65.4693 467.733C60.6709 465.36 55.5082 464.152 50.127 464.152C44.7457 464.152 39.583 465.36 34.7847 467.733C34.1497 468.045 33.3899 467.92 32.8903 467.421L24.376 458.906C24.0117 458.542 23.8452 458.042 23.9076 457.532C23.9701 457.022 24.2615 456.575 24.6987 456.315C32.3699 451.714 41.1652 449.289 50.1374 449.289C59.1096 449.289 67.9049 451.724 75.5761 456.315C76.0133 456.575 76.3047 457.022 76.3671 457.532C76.4296 458.042 76.2527 458.542 75.8988 458.906L67.3845 467.421C67.0618 467.733 66.6455 467.899 66.2083 467.899H66.1979ZM50.127 460.853C55.6123 460.853 60.8999 461.998 65.8544 464.256L72.0163 458.095C65.3131 454.483 57.7877 452.588 50.127 452.588C42.4662 452.588 34.9408 454.483 28.2376 458.095L34.3996 464.256C39.3541 461.998 44.6416 460.853 50.127 460.853Z" fill="white"/>
<path d="M50.1252 548.389C41.1529 548.389 32.3576 545.954 24.6865 541.364C24.2493 541.103 23.9579 540.656 23.8954 540.146C23.833 539.636 24.0099 539.136 24.3638 538.772L32.8781 530.258C33.3777 529.758 34.1479 529.633 34.7725 529.945C39.5708 532.318 44.7335 533.526 50.1148 533.526C55.496 533.526 60.6587 532.318 65.4571 529.945C66.092 529.633 66.8519 529.758 67.3515 530.258L75.8657 538.772C76.23 539.136 76.3966 539.636 76.3341 540.146C76.2717 540.656 75.9802 541.103 75.5431 541.364C67.8719 545.964 59.0766 548.389 50.1044 548.389H50.1252ZM28.2358 539.584C34.939 543.195 42.4644 545.09 50.1252 545.09C57.7859 545.09 65.3114 543.195 72.0145 539.584L65.8526 533.422C60.8981 535.68 55.6105 536.825 50.1252 536.825C44.6398 536.825 39.3523 535.68 34.3978 533.422L28.2358 539.584Z" fill="white"/>
<path d="M91.2331 525.074C90.7959 525.074 90.3796 524.907 90.0673 524.595L81.553 516.081C81.0534 515.581 80.9285 514.811 81.2408 514.187C83.614 509.388 84.8213 504.226 84.8213 498.844C84.8213 493.463 83.614 488.3 81.2408 483.502C80.9285 482.867 81.0534 482.097 81.553 481.608L90.0673 473.093C90.4316 472.729 90.9312 472.562 91.4413 472.625C91.9513 472.687 92.3988 472.979 92.659 473.416C97.2597 481.087 99.6849 489.882 99.6849 498.855C99.6849 507.827 97.2597 516.622 92.659 524.293C92.3988 524.731 91.9513 525.022 91.4413 525.084C91.3684 525.084 91.3059 525.084 91.2331 525.084V525.074ZM84.7068 514.561L90.8688 520.723C94.4806 514.02 96.3749 506.495 96.3749 498.834C96.3749 491.173 94.4806 483.648 90.8688 476.945L84.7068 483.106C86.9655 488.061 88.1105 493.349 88.1105 498.834C88.1105 504.319 86.9655 509.607 84.7068 514.561Z" fill="white"/>
<path d="M9.02385 525.074C8.95099 525.074 8.88853 525.074 8.82608 525.064C8.31606 525.001 7.86844 524.71 7.60823 524.273C3.00761 516.601 0.582397 507.806 0.582397 498.834C0.582397 489.862 3.00761 481.066 7.60823 473.395C7.86844 472.958 8.31606 472.667 8.82608 472.604C9.33611 472.542 9.83573 472.719 10.2 473.072L18.7143 481.587C19.2139 482.086 19.3388 482.857 19.0265 483.481C16.6534 488.28 15.446 493.442 15.446 498.824C15.446 504.205 16.6534 509.367 19.0265 514.166C19.3388 514.801 19.2139 515.571 18.7143 516.06L10.2 524.574C9.88777 524.887 9.47137 525.064 9.03421 525.064L9.02385 525.074ZM9.38813 476.945C5.77633 483.648 3.88198 491.173 3.88198 498.834C3.88198 506.495 5.77633 514.02 9.38813 520.723L15.55 514.561C13.2913 509.607 12.1464 504.319 12.1464 498.834C12.1464 493.349 13.2913 488.061 15.55 483.106L9.38813 476.945Z" fill="white"/>
<path d="M50.1284 460.853C29.1862 460.853 12.1368 477.892 12.1368 498.844C12.1368 519.797 29.1758 536.836 50.1284 536.836C71.0809 536.836 88.1199 519.797 88.1199 498.844C88.1199 477.892 71.0809 460.853 50.1284 460.853ZM71.5077 486.364C73.3084 489.445 74.4013 492.807 74.7552 496.377C74.7656 496.523 74.7031 496.659 74.5782 496.731C71.8616 498.397 69.4259 500.437 67.3234 502.82C67.2297 502.935 67.0736 502.977 66.9383 502.925L62.244 501.394C62.1087 501.353 62.015 501.238 61.9942 501.093C61.4633 497.21 60.256 493.494 58.4032 490.039C58.3408 489.914 58.3512 489.768 58.4344 489.654L61.3384 485.657C61.4113 485.563 61.5258 485.5 61.6403 485.5C61.6715 485.5 61.6924 485.5 61.7236 485.5C64.8254 486.187 68.0104 486.416 71.1746 486.156C71.3203 486.146 71.4557 486.219 71.5285 486.344L71.5077 486.364ZM59.4337 501.748C59.4441 501.852 59.4128 501.956 59.3504 502.029C56.8835 504.871 53.7402 507.15 50.2741 508.608C50.1804 508.649 50.0867 508.649 49.993 508.608C46.527 507.14 43.3835 504.86 40.9167 502.029C40.8542 501.956 40.823 501.852 40.8335 501.748C41.3123 497.98 42.4884 494.379 44.3099 491.048C44.3619 490.955 44.4453 490.892 44.5493 490.871C46.3813 490.486 48.2548 490.288 50.1388 490.288C52.0227 490.288 53.8963 490.486 55.7282 490.871C55.8323 490.892 55.9155 490.955 55.9676 491.048C57.7891 494.379 58.9549 497.98 59.4441 501.748H59.4337ZM58.8716 475.914C58.8716 475.914 58.9965 475.81 59.1214 475.81C59.1631 475.81 59.2151 475.81 59.2671 475.841C63.0975 477.361 66.522 479.859 69.1866 483.054C69.3219 483.211 69.2698 483.377 69.2386 483.44C69.2178 483.492 69.1241 483.658 68.9055 483.658C66.5428 483.689 64.1904 483.419 61.9109 482.877C61.8173 482.857 61.734 482.794 61.6819 482.711C60.4641 480.702 59.4857 478.537 58.7779 476.289C58.7155 476.091 58.8299 475.956 58.882 475.914H58.8716ZM44.872 474.665C48.3173 473.926 51.9499 473.926 55.3951 474.665C55.5304 474.696 55.6449 474.8 55.6761 474.936C56.4151 478.027 57.6122 480.983 59.2255 483.721C59.2984 483.845 59.2879 484.002 59.2047 484.127L56.3215 488.103C56.2382 488.217 56.0925 488.28 55.9572 488.248C52.1476 487.478 48.1195 487.478 44.3099 488.248C44.1746 488.28 44.0289 488.217 43.9456 488.103L41.0624 484.127C40.9791 484.012 40.9687 483.845 41.0416 483.721C42.6549 480.983 43.8519 478.027 44.591 474.936C44.6222 474.8 44.7367 474.696 44.872 474.665ZM31.0806 483.054C33.7452 479.849 37.1696 477.35 41 475.841C41.052 475.82 41.1041 475.81 41.1457 475.81C41.281 475.81 41.3643 475.883 41.3955 475.914C41.4475 475.966 41.562 476.091 41.4996 476.289C40.7918 478.547 39.8134 480.702 38.5956 482.711C38.5435 482.794 38.4603 482.857 38.3666 482.877C36.0871 483.419 33.7347 483.689 31.372 483.658C31.1534 483.658 31.0597 483.492 31.0389 483.44C31.0077 483.377 30.9556 483.211 31.0909 483.054H31.0806ZM28.7594 486.364C28.8219 486.25 28.9468 486.177 29.0821 486.177C29.0821 486.177 29.1029 486.177 29.1133 486.177C32.288 486.427 35.473 486.208 38.5644 485.521C38.7101 485.49 38.8558 485.542 38.9391 485.667L41.8431 489.664C41.9263 489.778 41.9368 489.935 41.8743 490.049C40.0216 493.505 38.8142 497.221 38.2833 501.103C38.2625 501.238 38.1688 501.353 38.0335 501.405L33.3392 502.935C33.2039 502.977 33.0478 502.935 32.9541 502.831C30.8516 500.447 28.4159 498.407 25.6993 496.742C25.5848 496.669 25.5119 496.534 25.5223 496.388C25.8762 492.818 26.9691 489.445 28.7698 486.375L28.7594 486.364ZM29.894 512.011C29.8315 512.209 29.6546 512.251 29.5817 512.261C29.5089 512.261 29.3423 512.261 29.2278 512.095C27.0108 508.608 25.6993 504.569 25.439 500.426C25.4286 500.218 25.5639 500.114 25.6264 500.083C25.6888 500.052 25.8554 499.979 26.0219 500.104C27.9475 501.467 29.6962 503.07 31.2262 504.85C31.2887 504.923 31.3199 505.017 31.3095 505.121C31.1222 507.463 30.6434 509.784 29.8836 512.022L29.894 512.011ZM40.1777 521.514C36.9302 520.088 34.0678 517.996 31.6738 515.311C31.5801 515.207 31.549 515.051 31.601 514.926C32.8188 511.99 33.589 508.899 33.8909 505.735C33.9013 505.589 34.0054 505.464 34.1407 505.423L38.7829 503.913C38.7829 503.913 38.8558 503.893 38.8974 503.893C39.0015 503.893 39.0952 503.934 39.168 504.017C41.7702 506.932 45.0281 509.305 48.5983 510.877C48.7336 510.939 48.8169 511.064 48.8169 511.21V516.091C48.8169 516.237 48.7336 516.372 48.5983 516.425C45.6838 517.684 42.9776 519.381 40.5524 521.452C40.4483 521.546 40.2922 521.566 40.1673 521.504L40.1777 521.514ZM56.5505 522.545C56.5401 522.618 56.488 522.784 56.2798 522.836C52.2621 523.856 48.0154 523.856 43.9977 522.836C43.7999 522.784 43.7374 522.618 43.727 522.545C43.7166 522.472 43.6958 522.305 43.8728 522.17C45.7671 520.765 47.8281 519.589 50.0035 518.683C50.0971 518.642 50.1908 518.642 50.2845 518.683C52.4494 519.589 54.5104 520.765 56.4152 522.17C56.5817 522.295 56.5713 522.472 56.5609 522.545H56.5505ZM68.6141 515.321C66.2201 518.007 63.3577 520.088 60.1102 521.514C59.9749 521.577 59.8292 521.546 59.7251 521.462C57.2999 519.391 54.6041 517.694 51.6792 516.435C51.5439 516.372 51.4606 516.248 51.4606 516.102V511.22C51.4606 511.074 51.5439 510.939 51.6792 510.887C55.2494 509.315 58.5177 506.942 61.1095 504.028C61.1823 503.945 61.276 503.903 61.3801 503.903C61.4217 503.903 61.4529 503.903 61.4946 503.924L66.1368 505.433C66.2722 505.475 66.3762 505.6 66.3866 505.745C66.6885 508.909 67.4587 511.99 68.6766 514.936C68.7286 515.061 68.7078 515.217 68.6037 515.321H68.6141ZM71.0497 512.105C70.9352 512.282 70.7583 512.282 70.6958 512.271C70.623 512.271 70.4564 512.219 70.3835 512.022C69.6341 509.784 69.1553 507.463 68.9575 505.121C68.9575 505.027 68.9784 504.923 69.0408 504.85C70.5709 503.07 72.3195 501.478 74.2451 500.104C74.318 500.052 74.3909 500.031 74.4533 500.031C74.5366 500.031 74.599 500.062 74.6407 500.083C74.7031 500.114 74.8488 500.218 74.828 500.426C74.5678 504.569 73.2563 508.608 71.0393 512.095L71.0497 512.105Z" fill="white"/>
<path d="M49.9826 424.933C37.2841 424.933 24.5959 420.103 14.9263 410.433C-4.40252 391.105 -4.40252 359.66 14.9263 340.331C24.2941 330.963 36.7428 325.811 49.9826 325.811C63.2224 325.811 75.6711 330.963 85.0389 340.331C104.368 359.66 104.368 391.105 85.0389 410.433C75.3797 420.093 62.6811 424.933 49.9826 424.933ZM17.5285 407.831C35.4209 425.724 64.5339 425.724 82.4263 407.831C100.319 389.939 100.319 360.826 82.4263 342.933C73.7559 334.263 62.2335 329.496 49.9722 329.496C37.7108 329.496 26.1884 334.273 17.5181 342.933C-0.374391 360.826 -0.374391 389.939 17.5181 407.831H17.5285Z" fill="#9DADF2"/>
<path d="M49.3269 393.936C49.5039 394.362 49.9202 394.612 50.3574 394.612C50.5031 394.612 50.6489 394.581 50.7946 394.529C54.2919 393.061 57.4769 390.792 59.9958 387.961C60.4017 387.503 60.3601 386.795 59.9021 386.389C59.4441 385.984 58.7364 386.025 58.3304 386.483C56.0301 389.075 53.1261 391.146 49.9306 392.478C49.3686 392.718 49.0979 393.374 49.3373 393.936H49.3269Z" fill="#9DADF2"/>
<path d="M68.8728 358.244L50.3871 350.854C50.1164 350.75 49.825 350.75 49.5544 350.854L31.0686 358.244C30.6419 358.411 30.3712 358.817 30.3712 359.275V372.515C30.392 384.734 38.1153 395.778 49.5856 399.983C49.7105 400.025 49.8354 400.046 49.9707 400.046C50.106 400.046 50.2309 400.025 50.3558 399.983C61.8261 395.768 69.5494 384.734 69.5702 372.515V359.275C69.5702 358.817 69.2996 358.411 68.8728 358.244ZM67.3427 372.515C67.3219 383.631 60.3481 393.759 49.9811 397.745C39.6141 393.759 32.6299 383.631 32.6091 372.515V360.035L49.9811 353.092L67.3427 360.035V372.515Z" fill="#9DADF2"/>
<path d="M42.2585 359.983C41.9878 359.868 41.686 359.868 41.4049 359.983L37.0021 361.742C36.5754 361.908 36.3047 362.314 36.3047 362.772V367.466C36.3047 368.081 36.8043 368.58 37.4184 368.58C38.0325 368.58 38.5322 368.081 38.5322 367.466V363.532L42.2272 362.054C42.5082 361.939 42.7164 361.731 42.8413 361.45C42.9558 361.18 42.9558 360.878 42.8413 360.597C42.7268 360.316 42.5187 360.108 42.248 359.983H42.2585Z" fill="#9DADF2"/>
<path d="M78.1259 347.232C70.6109 339.707 60.6082 335.574 49.9706 335.574C39.333 335.574 29.3407 339.717 21.8152 347.232C6.29596 362.751 6.29596 388.013 21.8152 403.543C29.5801 411.308 39.7701 415.18 49.9706 415.18C60.171 415.18 70.3611 411.297 78.1259 403.543C93.6452 388.024 93.6452 362.762 78.1259 347.232ZM72.6198 372.515C72.651 386.639 63.6267 398.994 50.1684 403.272C50.0434 403.314 49.9081 403.314 49.7728 403.272C36.3144 398.994 27.2902 386.639 27.3214 372.515V356.891C27.3214 356.631 27.4775 356.392 27.7273 356.288L49.7312 347.492C49.8041 347.461 49.8873 347.451 49.9706 347.451C50.0539 347.451 50.1371 347.461 50.21 347.492L72.2138 356.298C72.4636 356.392 72.6198 356.631 72.6198 356.902V372.525V372.515Z" fill="#9DADF2"/>
<path d="M50.3967 302.621C23.074 302.621 0.851562 280.388 0.851562 253.076C0.851562 225.763 23.0844 203.531 50.3967 203.531C77.709 203.531 99.9418 225.763 99.9418 253.076C99.9418 280.388 77.709 302.621 50.3967 302.621ZM50.3967 206.83C24.8955 206.83 4.15108 227.574 4.15108 253.076C4.15108 278.577 24.8955 299.321 50.3967 299.321C75.8979 299.321 96.6423 278.577 96.6423 253.076C96.6423 227.574 75.8979 206.83 50.3967 206.83Z" fill="#478BF9"/>
<path d="M82.7174 217.729L67.3792 233.067L70.3968 236.085L85.7351 220.747L82.7174 217.729Z" fill="#478BF9"/>
<path d="M29.9243 270.521L14.5861 285.859L17.6036 288.876L32.9419 273.538L29.9243 270.521Z" fill="#478BF9"/>
<path d="M70.8616 270.536L67.844 273.553L83.1822 288.891L86.1999 285.874L70.8616 270.536Z" fill="#478BF9"/>
<path d="M17.5999 217.267L14.5823 220.285L29.9132 235.616L32.9308 232.598L17.5999 217.267Z" fill="#478BF9"/>
<path d="M62.4808 254.408C63.48 253.409 63.48 251.795 62.4808 250.807L60.3574 248.694C59.3582 247.694 57.7449 247.694 56.7561 248.694L55.6111 249.839L54.2892 248.517C53.29 247.517 51.6766 247.517 50.6878 248.517L49.5429 249.672L48.221 248.34C47.2217 247.341 45.6084 247.341 44.6195 248.34L37.5937 255.366C37.5417 255.418 37.5417 255.501 37.5937 255.563C38.5305 256.5 40.0606 256.5 41.0078 255.563L45.5355 251.036C46.0247 250.546 46.8158 250.546 47.305 251.036L47.6381 251.369C47.7005 251.431 47.7005 251.525 47.6381 251.587L43.8597 255.366C43.8077 255.418 43.8077 255.501 43.8597 255.563C44.7965 256.5 46.3266 256.5 47.2738 255.563L51.6142 251.223C52.1034 250.734 52.8945 250.734 53.3837 251.223L53.7167 251.556C53.7688 251.608 53.7688 251.691 53.7167 251.754L50.0737 255.397C50.0217 255.449 50.0217 255.532 50.0737 255.595C51.0105 256.531 52.5405 256.531 53.4877 255.595L57.6824 251.4C58.1716 250.911 58.9626 250.911 59.4519 251.4L60.1701 252.118C60.4511 252.399 60.4511 252.868 60.1701 253.149L60.0556 253.263C59.7745 253.544 59.3062 253.544 59.0251 253.263L58.0987 252.337C58.0467 252.285 57.9634 252.285 57.901 252.337L56.2981 253.94C56.246 253.992 56.246 254.075 56.2981 254.137L57.7449 255.584C58.7441 256.583 60.3574 256.583 61.3462 255.584L62.4912 254.439L62.4808 254.408Z" fill="#478BF9"/>
<path d="M50.3978 215.084C29.414 215.084 12.4062 232.092 12.4062 253.076C12.4062 274.059 29.414 291.067 50.3978 291.067C71.3816 291.067 88.3893 274.059 88.3893 253.076C88.3893 232.092 71.3816 215.084 50.3978 215.084ZM51.9486 226.815C58.0481 227.169 63.5855 229.604 67.8738 233.414L62.3885 238.899C59.5261 236.474 55.9143 234.902 51.9486 234.569V226.815ZM48.8572 226.815V234.569C44.8916 234.892 41.2798 236.474 38.4174 238.899L32.932 233.414C37.2204 229.604 42.7578 227.169 48.8572 226.815ZM30.7463 235.6L36.2316 241.085C33.8064 243.947 32.2347 247.559 31.9016 251.525H24.1472C24.5011 245.425 26.9367 239.888 30.7463 235.6ZM24.1472 254.616H31.9016C32.2243 258.582 33.8064 262.194 36.2316 265.056L30.7463 270.541C26.9367 266.253 24.5011 260.716 24.1472 254.616ZM48.8572 279.326C42.7578 278.972 37.2204 276.537 32.932 272.727L38.4174 267.242C41.2798 269.667 44.8916 271.239 48.8572 271.572V279.326ZM34.4309 253.065C34.4309 244.249 41.5817 237.098 50.3978 237.098C59.2139 237.098 66.3646 244.249 66.3646 253.065C66.3646 261.881 59.2139 269.032 50.3978 269.032C41.5817 269.032 34.4309 261.881 34.4309 253.065ZM51.9486 279.326V271.572C55.9143 271.249 59.5261 269.667 62.3885 267.242L67.8738 272.727C63.5855 276.537 58.0481 278.972 51.9486 279.326ZM70.0596 270.541L64.5743 265.056C66.9995 262.194 68.5712 258.582 68.9043 254.616H76.6587C76.3048 260.716 73.8692 266.253 70.0596 270.541ZM68.9043 251.525C68.5816 247.559 66.9995 243.947 64.5743 241.085L70.0596 235.6C73.8692 239.888 76.3048 245.425 76.6587 251.525H68.9043Z" fill="#478BF9"/>
<path d="M15.4881 158.26C-4.00158 138.77 -4.00158 107.061 15.4881 87.5715C34.9779 68.0818 66.6866 68.0818 86.1763 87.5715C105.666 107.061 105.666 138.77 86.1763 158.26C66.6866 177.749 34.9779 177.749 15.4881 158.26ZM83.8207 89.9272C65.6296 71.7361 36.0348 71.7361 17.8485 89.9272C-0.342528 108.118 -0.342528 137.713 17.8485 155.899C36.0396 174.09 65.6344 174.09 83.8207 155.899C102.012 137.708 102.012 108.113 83.8207 89.9272Z" fill="white"/>
<path d="M84.3639 112.313C84.1885 112.138 84.0464 111.915 83.9658 111.668C82.2358 106.55 79.4109 102.014 75.5717 98.1744C71.7373 94.34 67.1966 91.5151 62.0777 89.7804C61.4 89.5481 60.9449 88.9178 60.9449 88.2021V76.0542C60.9449 75.5423 61.1819 75.0588 61.5848 74.7413C61.9924 74.4237 62.5185 74.3147 63.0115 74.4379C71.761 76.6277 79.7711 81.1683 86.1697 87.5717C92.5683 93.975 97.109 101.98 99.2988 110.73C99.422 111.228 99.3082 111.754 98.9954 112.161C98.6779 112.569 98.1944 112.801 97.6825 112.801H85.5346C85.0796 112.801 84.6625 112.616 84.3544 112.308L84.3639 112.313ZM77.9273 95.8188C81.8423 99.7338 84.7952 104.322 86.7195 109.469H95.507C93.2983 102.113 89.2837 95.3922 83.8188 89.9273C78.3539 84.4624 71.633 80.4479 64.2817 78.2439V87.0314C69.4291 88.9509 74.0171 91.9038 77.9321 95.8235L77.9273 95.8188Z" fill="white"/>
<path d="M15.4868 158.26C9.08822 151.861 4.54282 143.851 2.35307 135.101C2.22984 134.604 2.3436 134.078 2.65642 133.675C2.97398 133.267 3.45741 133.035 3.9693 133.035H16.1172C16.8329 133.035 17.468 133.49 17.6955 134.168C19.4255 139.287 22.2504 143.823 26.0896 147.662C29.924 151.496 34.4647 154.321 39.5836 156.056C40.2614 156.283 40.7163 156.918 40.7163 157.634V169.782C40.7163 170.294 40.4794 170.777 40.0765 171.095C39.6689 171.412 39.1427 171.521 38.6451 171.398C29.8956 169.208 21.8902 164.668 15.4868 158.269V158.26ZM6.15433 136.362C8.36304 143.718 12.3776 150.439 17.8425 155.904C23.3074 161.369 30.0283 165.384 37.3843 167.592V158.805C32.237 156.885 27.6489 153.932 23.7339 150.017C19.8189 146.102 16.8661 141.514 14.9418 136.367H6.15433V136.362Z" fill="white"/>
<path d="M61.4332 170.953C61.1203 170.64 60.9449 170.218 60.9449 169.773V157.625C60.9449 156.909 61.4 156.274 62.0777 156.046C67.1966 154.316 71.7325 151.492 75.5717 147.652C79.4109 143.813 82.231 139.277 83.9657 134.158C84.1932 133.481 84.8284 133.026 85.5441 133.026H97.692C98.2039 133.026 98.6873 133.263 99.0049 133.665C99.3225 134.068 99.4315 134.599 99.3083 135.092C97.1138 143.842 92.5731 151.847 86.1745 158.25C79.7758 164.654 71.7657 169.194 63.0162 171.384C62.5185 171.507 61.9924 171.394 61.5895 171.081C61.5374 171.033 61.4853 170.991 61.4379 170.943L61.4332 170.953ZM64.277 158.8V167.588C71.633 165.379 78.3539 161.364 83.8188 155.9C89.2837 150.435 93.2935 143.714 95.507 136.358H86.7195C84.7999 141.505 81.8471 146.088 77.9273 150.008C74.0123 153.923 69.4243 156.881 64.277 158.8Z" fill="white"/>
<path d="M2.78986 112.313C2.74246 112.266 2.69508 112.214 2.65716 112.161C2.3396 111.759 2.23058 111.228 2.35381 110.73C4.54356 101.981 9.08422 93.9704 15.4876 87.5718C21.8909 81.1732 29.8963 76.6278 38.6458 74.438C39.1435 74.3148 39.6696 74.4285 40.0725 74.7414C40.4754 75.0589 40.7124 75.5424 40.7124 76.0543V88.2022C40.7124 88.9179 40.2574 89.553 39.5796 89.7805C34.4607 91.5105 29.9247 94.3354 26.0856 98.1745C22.2511 102.009 19.4263 106.55 17.6915 111.669C17.464 112.346 16.8289 112.801 16.1132 112.801H3.96533C3.5198 112.801 3.0932 112.626 2.78512 112.318L2.78986 112.313ZM37.3803 78.244C30.0243 80.4527 23.3034 84.4673 17.8385 89.9322C12.3736 95.3971 8.36378 102.118 6.15033 109.474H14.9378C16.8573 104.327 19.8102 99.7434 23.7299 95.8236C27.6449 91.9086 32.233 88.9558 37.3803 87.0315V78.244Z" fill="white"/>
<path d="M77.9314 95.8187C62.9918 80.8791 38.6771 80.8743 23.7375 95.8187C8.79315 110.763 8.79789 135.073 23.7375 150.013C38.6771 164.952 62.9871 164.957 77.9314 150.013C92.8757 135.068 92.871 110.758 77.9314 95.8187Z" fill="white"/>
<path d="M64.6504 136.593L37.1227 136.776C35.9631 136.783 35.0293 137.73 35.037 138.889L35.0435 139.87C35.0512 141.03 35.9975 141.964 37.1571 141.956L64.6848 141.774C65.8444 141.766 66.7782 140.82 66.7705 139.66L66.764 138.679C66.7563 137.519 65.81 136.585 64.6504 136.593Z" fill="#110A1D"/>
<path d="M40.8732 119.977C40.5746 119.977 40.2713 119.911 39.9964 119.778L37.8492 118.74C36.9155 118.285 36.4889 117.18 36.8776 116.218L37.8635 113.763C38.1668 113.014 38.8825 112.526 39.6883 112.521C40.0343 112.521 40.3755 112.607 40.6788 112.782L43.2383 114.242C43.717 114.512 44.063 114.981 44.1862 115.522C44.3095 116.062 44.2005 116.631 43.8876 117.086L42.4847 119.119C42.1197 119.65 41.513 119.972 40.8684 119.972L40.8732 119.977Z" fill="#110A1D"/>
<path d="M60.6919 119.844C60.0473 119.844 59.4359 119.536 59.0663 119.01L57.6775 117.053C57.3552 116.602 57.2415 116.034 57.3552 115.493C57.469 114.953 57.8102 114.479 58.2889 114.199L60.9289 112.649C61.2275 112.474 61.5688 112.379 61.9148 112.375C62.7206 112.37 63.4458 112.849 63.7586 113.593L64.7539 115.977C65.152 116.934 64.7397 118.048 63.8155 118.512L61.5688 119.636C61.2987 119.768 60.9953 119.844 60.6967 119.844H60.6919Z" fill="#110A1D"/>
<path d="M38.7106 134.935C37.502 134.945 36.4166 134.187 36.0043 133.049L31.4115 120.408C31.1176 120.55 30.8048 120.659 30.4872 120.74C30.1128 120.835 29.7336 120.882 29.3497 120.882C29.1269 120.882 28.9089 120.873 28.6956 120.844C26.302 120.541 24.4868 118.489 24.4725 116.071C24.4536 113.398 26.6148 111.208 29.288 111.189C31.9612 111.171 34.151 113.332 34.1652 116.005C34.1652 116.621 34.0609 117.214 33.8429 117.768C33.7244 118.072 33.5775 118.361 33.4069 118.636L42.1422 122.863L48.8252 113.18C48.5456 113.062 48.2754 112.915 48.0194 112.739C47.536 112.412 47.1141 112.005 46.7729 111.526C46.1946 110.711 45.8818 109.749 45.8771 108.753C45.8581 106.08 48.0194 103.89 50.6926 103.871C50.8111 103.871 50.9344 103.871 51.0529 103.881C53.4464 104.042 55.3802 105.962 55.5556 108.355C55.6362 109.488 55.3376 110.573 54.693 111.498C54.3517 111.981 53.9346 112.393 53.4559 112.72C53.2047 112.896 52.9345 113.043 52.6549 113.161L59.4564 122.745L68.0495 118.446C67.8883 118.138 67.7604 117.816 67.6656 117.479C67.5518 117.071 67.4902 116.645 67.4902 116.214C67.4902 116.019 67.4997 115.825 67.5186 115.635C67.7935 113.199 69.8506 111.351 72.301 111.336C74.9742 111.317 77.164 113.479 77.1782 116.152C77.1971 118.702 75.2159 120.844 72.6707 121.02L72.3674 121.029C71.8744 121.029 71.391 120.963 70.9218 120.821C70.6184 120.726 70.3245 120.607 70.0496 120.456L65.7365 132.85C65.3431 133.992 64.2624 134.76 63.0538 134.77L38.7106 134.931V134.935Z" fill="#110A1D"/>
<path d="M100.411 2.04012V121.635C100.411 122.624 99.6098 123.415 98.6314 123.415C97.653 123.415 96.8516 122.614 96.8516 121.635V2.04012C96.8516 1.0513 97.653 0.260254 98.6314 0.260254C99.6098 0.260254 100.411 1.06171 100.411 2.04012Z" fill="white"/>
<path d="M4.86833 1.77987V121.375C4.86833 122.364 4.06691 123.155 3.08849 123.155C2.11008 123.155 1.30859 122.354 1.30859 121.375V1.77987C1.30859 0.791047 2.11008 0 3.08849 0C4.06691 0 4.86833 0.801456 4.86833 1.77987Z" fill="white"/>
</g>
</svg>
